<svg width="60" height="60" viewBox="0 0 60 60" fill="none" xmlns="http://www.w3.org/2000/svg">
<path d="M48 0H12C5.37258 0 0 5.37258 0 12V48C0 54.6274 5.37258 60 12 60H48C54.6274 60 60 54.6274 60 48V12C60 5.37258 54.6274 0 48 0Z" fill="#262626"/>
<path d="M14.3642 17.0872L7.16759 29.1829C6.9464 29.5547 6.94401 30.0159 7.16132 30.3897L8.8525 33.2993C9.31623 34.0972 10.476 34.0967 10.9396 33.2985L17.1867 22.5426C17.3998 22.1757 17.7923 21.9479 18.2187 21.9437L31.2163 21.8159C32.1279 21.807 32.6999 20.8346 32.2599 20.0417L30.6373 17.1179C30.4255 16.7362 30.0214 16.4991 29.5825 16.4991H15.4018C14.9756 16.4991 14.581 16.7227 14.3642 17.0872Z" fill="#FFFEED"/>
<path d="M18.037 10.595L16.3554 13.4654C15.888 14.2631 16.4672 15.2634 17.3963 15.2634H30.2668C30.6933 15.2634 31.0879 15.4873 31.3044 15.8521L37.7342 26.6846C38.2106 27.4872 39.3873 27.4646 39.8326 26.6443L41.2628 24.0093C41.4584 23.649 41.455 23.2144 41.2538 22.8572L34.4096 10.7136C34.1982 10.3384 33.8002 10.1049 33.3672 10.1018L19.0874 10C18.6553 9.99695 18.2545 10.224 18.037 10.595Z" fill="#FFFEED"/>
<path d="M40.8937 10.1736L37.681 10.1332C36.7517 10.1214 36.1592 11.1151 36.6166 11.9187L42.8403 22.8519C43.0452 23.2119 43.0484 23.6514 42.8488 24.0143L36.8524 34.9178C36.414 35.7151 36.9947 36.6876 37.9094 36.6876H41.0623C41.493 36.6876 41.891 36.4592 42.1062 36.0886L49.0215 24.1825C49.2365 23.8124 49.2364 23.3565 49.0214 22.9865L41.9215 10.7715C41.7091 10.4062 41.3186 10.1789 40.8937 10.1736Z" fill="#FFFEED"/>
<path d="M52.8387 29.5538L51.1475 26.6443C50.6838 25.8465 49.524 25.847 49.0605 26.6451L42.8135 37.4005C42.6003 37.7676 42.2073 37.9955 41.7806 37.9993L28.9435 38.116C28.0344 38.1242 27.4614 39.0913 27.8957 39.8844L29.5034 42.8199C29.7142 43.2049 30.1201 43.4445 30.5613 43.4445H44.5982C45.0244 43.4445 45.4189 43.2209 45.6357 42.8565L52.8324 30.7606C53.0536 30.3889 53.056 29.9277 52.8387 29.5538Z" fill="#FFFEED"/>
<path d="M29.7554 44.6852L42.6153 44.7769C43.5476 44.7836 44.119 45.7941 43.6397 46.5884L41.9654 49.3622C41.7461 49.7255 41.3496 49.9467 40.9231 49.9436L26.6077 49.8417C26.1882 49.8387 25.8006 49.6192 25.5843 49.2623L18.3218 37.2763C18.0916 36.8965 18.0918 36.4214 18.3224 36.0417L20.389 32.6369C20.8699 31.8449 22.0348 31.8705 22.4794 32.6829L28.7058 44.0604C28.9151 44.4428 29.3171 44.6821 29.7554 44.6852Z" fill="#FFFEED"/>
<path d="M16.9304 37.2691L23.2519 48.145C23.71 48.9332 23.1491 49.9209 22.2327 49.9396L19.2798 49.9997C18.8408 50.0087 18.4316 49.7796 18.2121 49.402L10.9785 36.9571C10.7635 36.5871 10.7635 36.1313 10.9785 35.7612L17.9176 23.8138C18.133 23.4432 18.5309 23.2149 18.9617 23.2149H22.5799C23.5166 23.2149 24.0947 24.2298 23.6123 25.0274L16.9411 36.0548C16.7155 36.4276 16.7114 36.8925 16.9304 37.2691Z" fill="#FFFEED"/>
<path d="M33.8213 28.5118C33.8213 28.8344 33.558 29.0959 33.2333 29.0959C32.9086 29.0959 32.6454 28.8344 32.6454 28.5118C32.6454 28.1894 32.9086 27.9279 33.2333 27.9279C33.558 27.9279 33.8213 28.1894 33.8213 28.5118Z" fill="#FFFEED"/>
<path d="M33.8213 30.2638C33.8213 30.5863 33.558 30.8478 33.2333 30.8478C32.9086 30.8478 32.6454 30.5863 32.6454 30.2638C32.6454 29.9413 32.9086 29.6798 33.2333 29.6798C33.558 29.6798 33.8213 29.9413 33.8213 30.2638Z" fill="#FFFEED"/>
<path d="M33.8213 32.0157C33.8213 32.3382 33.558 32.5997 33.2333 32.5997C32.9086 32.5997 32.6454 32.3382 32.6454 32.0157C32.6454 31.6932 32.9086 31.4317 33.2333 31.4317C33.558 31.4317 33.8213 31.6932 33.8213 32.0157Z" fill="#FFFEED"/>
<path d="M33.5325 24.8981L32.6487 24.3637C31.8456 23.8781 30.8166 24.4519 30.8166 25.3853V32.8109C30.8166 33.4447 30.3706 33.9923 29.7464 34.1253C29.2527 34.2304 28.7384 34.1807 28.2743 33.9831L28.073 33.8974L28.6494 33.6429C29.0179 33.4804 29.2646 33.1279 29.2898 32.7285L29.2956 32.6367C29.3411 31.9134 28.7604 31.302 28.0303 31.302C27.3334 31.302 26.7666 31.8628 26.7666 32.5546V32.7279C26.7666 34.069 27.8996 35.136 29.2489 35.0654C30.5982 35.136 31.7312 34.069 31.7312 32.7279V27.134C31.7312 26.6765 32.2277 26.3884 32.6293 26.6128L32.9235 26.7772C33.3252 27.0017 33.8216 26.7135 33.8216 26.256V25.4089C33.8216 25.2002 33.712 25.0066 33.5325 24.8981Z" fill="#FFFEED"/>
</svg>
