<svg width="80" height="80" viewBox="0 0 80 80" fill="none" xmlns="http://www.w3.org/2000/svg">
<mask id="mask0_920_48" style="mask-type:alpha" maskUnits="userSpaceOnUse" x="46" y="47" width="10" height="28">
<path d="M46.1113 56.8215L47.8303 47.1901H54.7189C54.7189 47.1901 55.0608 51.1251 55.4135 53.8392C55.7248 56.2348 54.5272 69.5404 54.2417 72.6287C54.1999 73.0812 53.9639 73.4995 53.5792 73.7465C52.0424 74.7327 50.3137 74.2383 49.2848 73.7665C48.7303 73.5121 48.3892 72.9469 48.41 72.3409C48.4531 71.0829 48.5003 68.5936 48.3811 65.2697C48.2045 60.3667 46.1113 56.8215 46.1113 56.8215Z" fill="white"/>
</mask>
<g mask="url(#mask0_920_48)">
<path fill-rule="evenodd" clip-rule="evenodd" d="M46.0924 74.3432H55.5012V47.1504H46.0924V74.3432Z" fill="#AD2324"/>
</g>
<mask id="mask1_920_48" style="mask-type:alpha" maskUnits="userSpaceOnUse" x="16" y="44" width="8" height="22">
<path d="M23.9428 49.5537C23.9428 49.5537 23.3067 59.6843 23.3212 62.7273C23.3237 63.1591 23.2395 63.5908 23.0324 63.9705C22.7069 64.568 22.0232 65.2304 20.5933 65.2252C17.5912 65.2145 17.8605 64.0871 17.7725 62.8613C17.6844 61.6359 16.9792 49.9917 16.9792 49.9917L20.4611 44.0384L23.9428 49.5537Z" fill="white"/>
</mask>
<g mask="url(#mask1_920_48)">
<path fill-rule="evenodd" clip-rule="evenodd" d="M16.9747 65.2643H23.9755V44.0352H16.9747V65.2643Z" fill="#AD2324"/>
</g>
<mask id="mask2_920_48" style="mask-type:alpha" maskUnits="userSpaceOnUse" x="7" y="4" width="61" height="75">
<path d="M59.9064 12.958C59.9064 12.958 64.2257 17.423 66.9581 22.9388C69.6908 28.4545 65.1072 33.5321 62.9917 33.3572C60.8762 33.1821 55.5873 30.3805 55.5873 30.3805C55.5873 30.3805 52.8549 35.0205 54.089 44.2134C54.089 44.2134 55.0585 47.978 54.7058 48.766C54.3532 49.5538 48.8001 51.2172 48.8001 51.2172C48.8001 51.2172 45.4506 56.9954 45.6268 71.7041L45.6208 76.3969C45.6204 76.8942 45.3685 77.3612 44.9437 77.6234C43.9586 78.2313 42.0289 79.0297 40.0353 77.6697C39.621 77.3872 39.385 76.9065 39.4081 76.408C39.5586 73.1436 39.886 59.6436 35.49 52.4429C35.49 52.4429 28.2621 53.5812 19.3596 48.766C19.3596 48.766 13.6366 54.7045 14.2988 66.6654C14.3326 67.2781 14.0428 67.87 13.5173 68.1938C13.006 68.5082 12.1599 68.9341 10.8976 68.6396C10.3618 68.5146 9.92588 68.3662 9.57434 68.2149C8.76426 67.8662 8.22769 67.0897 8.16601 66.2152C7.91889 62.6985 7.32062 51.2172 8.7821 37.2094C10.5449 20.3122 17.9493 22.2385 27.1161 23.2889C27.1161 23.2889 28.7029 23.5514 31.5236 24.3396C31.5236 24.3396 33.007 23.902 37.8184 13.4836C42.6298 3.06483 52.0616 7.17972 52.0616 7.17972L54.794 5.34128L59.253 4.5031C60.2582 4.31432 61.1482 5.17254 60.9881 6.17614L59.9064 12.958Z" fill="white"/>
</mask>
<g mask="url(#mask2_920_48)">
<path fill-rule="evenodd" clip-rule="evenodd" d="M7.78839 78.4379H67.8082V4.46973H7.78839V78.4379Z" fill="#D2403C"/>
</g>
<mask id="mask3_920_48" style="mask-type:alpha" maskUnits="userSpaceOnUse" x="54" y="4" width="8" height="12">
<path d="M56.3035 14.0778L54.8394 15.1378C54.59 15.3177 54.243 15.1241 54.269 14.8196L55.1088 5.11331L55.1386 5.03691L59.5411 4.21207C60.5508 4.0233 61.4444 4.88188 61.2836 5.88659L60.1974 12.6755C60.1974 12.6755 60.4408 12.9266 60.8451 13.3788L56.3035 14.0778Z" fill="white"/>
</mask>
<g mask="url(#mask3_920_48)">
<path fill-rule="evenodd" clip-rule="evenodd" d="M54.2527 15.2401H61.298V4.1582H54.2527V15.2401Z" fill="#EF5D53"/>
</g>
<mask id="mask4_920_48" style="mask-type:alpha" maskUnits="userSpaceOnUse" x="56" y="9" width="13" height="25">
<path d="M60.6584 9.79302L60.1973 12.6755C60.1973 12.6755 64.5339 17.1453 67.2773 22.6666C70.0208 28.1878 65.4189 33.2708 63.2949 33.0953C62.9223 33.0645 62.4496 32.9518 61.9264 32.7882C65.248 31.0789 65.4595 25.9968 65.4595 25.9968L57.1885 18.7226L56.3033 14.0778L58.9584 9.69659L60.6584 9.79302Z" fill="white"/>
</mask>
<g mask="url(#mask4_920_48)">
<path fill-rule="evenodd" clip-rule="evenodd" d="M56.2591 33.1312H68.1204V9.67676H56.2591V33.1312Z" fill="#EF5D53"/>
</g>
<mask id="mask5_920_48" style="mask-type:alpha" maskUnits="userSpaceOnUse" x="62" y="17" width="4" height="6">
<path d="M62.2151 17.5833C62.2151 17.5833 64.704 20.1249 65.4599 22.1406L64.3573 22.5786C64.3573 22.5786 61.9316 20.1249 62.2151 17.5833Z" fill="white"/>
</mask>
<g mask="url(#mask5_920_48)">
<path fill-rule="evenodd" clip-rule="evenodd" d="M62.1901 22.5834H65.4899V17.5544H62.1901V22.5834Z" fill="white"/>
</g>
<mask id="mask6_920_48" style="mask-type:alpha" maskUnits="userSpaceOnUse" x="38" y="6" width="15" height="6">
<path d="M38.8326 11.6543C43.8365 3.20312 52.3212 6.89114 52.3212 6.89114L48.5153 9.69648C48.5153 9.69648 43.7525 6.42644 38.8326 11.6543Z" fill="white"/>
</mask>
<g mask="url(#mask6_920_48)">
<path fill-rule="evenodd" clip-rule="evenodd" d="M38.8242 11.6796H52.3353V6.0719H38.8242V11.6796Z" fill="#EF5D53"/>
</g>
<mask id="mask7_920_48" style="mask-type:alpha" maskUnits="userSpaceOnUse" x="40" y="22" width="17" height="7">
<path d="M56.8052 25.091C56.8052 25.091 53.1472 23.9227 49.9612 27.4282C46.7751 30.9338 40.7572 27.4282 40.7572 27.4282C40.7572 27.4282 46.5388 26.3764 48.7809 23.455C51.0232 20.5339 56.8052 25.091 56.8052 25.091Z" fill="white"/>
</mask>
<g mask="url(#mask7_920_48)">
<path fill-rule="evenodd" clip-rule="evenodd" d="M40.7416 28.9922H56.8389V22.4499H40.7416V28.9922Z" fill="white"/>
</g>
<mask id="mask8_920_48" style="mask-type:alpha" maskUnits="userSpaceOnUse" x="40" y="21" width="7" height="2">
<path d="M46.7092 21.3182C46.7092 21.3182 46.6605 22.0362 46.4089 22.0432C46.1577 22.0506 45.5821 21.7079 45.5821 21.7079C45.5821 21.7079 45.5761 22.3884 44.9999 22.1819C44.4231 21.9754 44.3559 21.5376 44.3559 21.5376C44.3559 21.5376 44.2091 22.6258 43.2244 21.8715C43.2244 21.8715 42.9125 22.8924 42.1069 22.2379C42.1069 22.2379 41.732 22.878 40.9921 22.3318C40.9921 22.3318 41.8751 22.1982 41.8977 21.7431C41.8977 21.7431 42.6249 22.1199 42.9724 21.4138C42.9724 21.4138 43.8955 22.1163 44.1689 21.1891C44.1689 21.1891 45.2652 22.2079 45.516 21.1342C45.516 21.1342 46.1428 22.1536 46.7092 21.3182Z" fill="white"/>
</mask>
<g mask="url(#mask8_920_48)">
<path fill-rule="evenodd" clip-rule="evenodd" d="M40.9648 22.5836H46.717V21.1149H40.9648V22.5836Z" fill="white"/>
</g>
<mask id="mask9_920_48" style="mask-type:alpha" maskUnits="userSpaceOnUse" x="40" y="8" width="8" height="14">
<path d="M46.3452 8.84135L46.3448 8.84172L46.1249 13.4205L47.2757 18.6785L47.3355 20.5671C47.3355 20.5671 46.6128 19.8179 44.9309 20.1691C43.2495 20.5196 42.1005 21.8392 40.9273 21.3979C40.9273 21.3979 41.2563 19.678 40.4403 17.8021C39.6239 15.9269 40.7568 12.3691 40.7568 12.3691L40.2143 10.3942C42.5761 8.57655 44.796 8.51275 46.3452 8.84135Z" fill="white"/>
</mask>
<g mask="url(#mask9_920_48)">
<path fill-rule="evenodd" clip-rule="evenodd" d="M40.1172 21.5155H47.3409V8.65332H40.1172V21.5155Z" fill="#F1C358"/>
</g>
<mask id="mask10_920_48" style="mask-type:alpha" maskUnits="userSpaceOnUse" x="40" y="6" width="10" height="5">
<path d="M49.8427 6.21892V6.21928L46.3466 8.84177C44.7974 8.51317 42.5757 8.57696 40.2143 10.3943C40.2143 10.3943 40.1997 10.1131 40.1823 9.73856C43.3475 6.00714 47.3213 5.82986 49.8427 6.21892Z" fill="white"/>
</mask>
<g mask="url(#mask10_920_48)">
<path fill-rule="evenodd" clip-rule="evenodd" d="M40.1621 10.4335H49.883V6.07196H40.1621V10.4335Z" fill="#F0DE83"/>
</g>
<mask id="mask11_920_48" style="mask-type:alpha" maskUnits="userSpaceOnUse" x="45" y="8" width="3" height="14">
<path d="M46.3468 8.8418C46.3468 8.8418 46.4207 12.2376 47.2861 15.86C48.1512 19.4823 47.0108 21.3979 47.0108 21.3979C47.0108 21.3979 47.9547 20.6509 46.3468 17.0497C44.7389 13.4488 46.3468 8.8418 46.3468 8.8418Z" fill="white"/>
</mask>
<g mask="url(#mask11_920_48)">
<path fill-rule="evenodd" clip-rule="evenodd" d="M45.6023 21.4264H47.6088V8.83136H45.6023V21.4264Z" fill="white"/>
</g>
<mask id="mask12_920_48" style="mask-type:alpha" maskUnits="userSpaceOnUse" x="39" y="10" width="3" height="12">
<path d="M40.2141 10.3942C40.2141 10.3942 41.3468 13.095 40.7571 15.12C40.1669 17.145 42.2772 20.2759 40.9272 21.3982C40.9272 21.3982 40.4029 18.4891 39.695 17.5834C38.9868 16.6776 40.3799 14.8607 40.2141 10.3942Z" fill="white"/>
</mask>
<g mask="url(#mask12_920_48)">
<path fill-rule="evenodd" clip-rule="evenodd" d="M39.4928 21.4264H41.4103V10.389H39.4928V21.4264Z" fill="white"/>
</g>
<mask id="mask13_920_48" style="mask-type:alpha" maskUnits="userSpaceOnUse" x="41" y="9" width="5" height="11">
<path d="M42.7521 9.99622C42.7521 9.99622 42.0145 10.567 41.9684 10.9664C41.9684 10.9664 43.1211 10.0192 43.5823 10.9664C44.0431 11.914 42.9825 12.8275 42.9825 13.4665C42.9825 14.106 44.7349 12.6903 44.5045 14.5169C44.2733 16.343 43.6283 16.2518 43.6283 16.2518C43.6283 16.2518 47.0407 16.7544 45.3343 18.2609C43.6283 19.7681 42.7981 19.4941 42.7981 19.4941C42.7981 19.4941 44.7349 18.4133 44.4584 17.9264C44.4584 17.9264 42.5677 20.1334 42.2913 18.2153C42.0145 16.2974 43.2132 15.6124 43.2132 15.6124C43.2132 15.6124 41.2304 15.5461 42.7981 12.8398C42.7981 12.8398 40.8153 13.695 41.4151 11.5943C42.0145 9.49404 42.7521 9.99622 42.7521 9.99622Z" fill="white"/>
</mask>
<g mask="url(#mask13_920_48)">
<path fill-rule="evenodd" clip-rule="evenodd" d="M41.2767 19.5571H45.8249V9.94391H41.2767V19.5571Z" fill="#397490"/>
</g>
<mask id="mask14_920_48" style="mask-type:alpha" maskUnits="userSpaceOnUse" x="48" y="10" width="4" height="7">
<path d="M51.0432 10.3942C51.0432 10.3942 49.902 11.7702 50.3742 13.1139C50.3742 13.1139 49.5482 13.523 49.3709 12.5298C49.3709 12.5298 48.5649 14.2826 50.207 15.5094C50.207 15.5094 49.0762 16.7503 48.7812 15.8962C48.7812 15.8962 49.7841 15.6422 49.0172 14.7287C48.2502 13.8148 48.7812 11.6545 48.7812 11.6545C48.7812 11.6545 49.8432 12.9971 49.8432 12.0039C49.8432 11.0103 51.0432 10.3942 51.0432 10.3942Z" fill="white"/>
</mask>
<g mask="url(#mask14_920_48)">
<path fill-rule="evenodd" clip-rule="evenodd" d="M48.5898 16.2192H51.0869V10.389H48.5898V16.2192Z" fill="white"/>
</g>
<mask id="mask15_920_48" style="mask-type:alpha" maskUnits="userSpaceOnUse" x="36" y="21" width="5" height="4">
<path d="M40.1444 24.0977C35.874 25.6169 36.686 21.3977 36.686 21.3977C37.217 24.5996 39.813 23.9226 40.1444 24.0977Z" fill="white"/>
</mask>
<g mask="url(#mask15_920_48)">
<path fill-rule="evenodd" clip-rule="evenodd" d="M36.5944 24.4526H40.1618V21.3818H36.5944V24.4526Z" fill="white"/>
</g>
<mask id="mask16_920_48" style="mask-type:alpha" maskUnits="userSpaceOnUse" x="12" y="22" width="43" height="31">
<path d="M29.9094 23.5952C29.9094 23.5952 26.7149 23.864 28.662 26.2596C30.6088 28.655 32.6741 29.5314 32.4381 32.2774C32.4381 32.2774 34.3849 31.1092 34.9753 32.7448C34.9753 32.7448 37.3941 31.1177 38.928 33.1C38.928 33.1 41.1112 31.401 43.2942 33.6797C43.2942 33.6797 45.8902 32.862 47.3357 34.9652C47.3357 34.9652 49.0172 33.2706 50.787 35.4325C50.787 35.4325 53.095 33.0306 54.2417 35.8968C54.2417 35.8968 53.8616 40.3404 54.2417 41.5086C54.2417 41.5086 52.3608 43.156 51.043 41.1933C51.043 41.1933 48.9581 43.5652 47.3357 41.1933C47.3357 41.1933 44.823 42.9694 43.5569 40.4572C43.5569 40.4572 41.2289 42.7941 38.8693 40.0485C38.8693 40.0485 35.8601 41.7426 34.6213 38.7044C34.6213 38.7044 33.2638 40.3989 31.6121 38.5289C31.6121 38.5289 32.4972 42.0345 30.845 42.8526C30.845 42.8526 33.3824 45.3068 32.084 47.2928C32.084 47.2928 33.9806 48.0097 33.3824 50.156C33.3824 50.156 33.8538 51.6752 33.677 52.3178C33.677 52.3178 31.3828 52.6876 29.3438 51.9477C29.3438 51.9477 28.898 50.7984 29.4881 49.8056C29.4881 49.8056 28.1901 48.8124 28.721 47.41C28.721 47.41 25.2986 46.3582 26.6561 42.9109C26.6561 42.9109 24.237 40.5146 25.24 38.0026C25.24 38.0026 18.691 37.828 19.8117 31.4596C19.8117 31.4596 15.0917 33.2706 14.207 29.5897C14.207 29.5897 11.497 28.5968 12.8815 25.0033C12.8815 25.0033 15.2266 19.9376 29.9094 23.5952Z" fill="white"/>
</mask>
<g mask="url(#mask16_920_48)">
<path fill-rule="evenodd" clip-rule="evenodd" d="M12.4707 52.4468H54.2527V22.2721H12.4707V52.4468Z" fill="white"/>
</g>
<mask id="mask17_920_48" style="mask-type:alpha" maskUnits="userSpaceOnUse" x="27" y="23" width="28" height="13">
<path d="M29.9092 23.5953C29.4409 23.6807 28.9809 23.8449 28.6116 24.1076C28.4373 24.2481 28.2913 24.4147 28.2285 24.6079C28.1816 24.8037 28.1835 25.008 28.2645 25.2068C28.3005 25.3069 28.3321 25.406 28.3972 25.4995C28.4581 25.5921 28.4997 25.6916 28.574 25.7784C28.7197 25.9579 28.8443 26.1259 29.0167 26.3001C29.3407 26.6525 29.664 26.9681 30.0077 27.2968L31.0533 28.27C31.2284 28.4376 31.3989 28.6104 31.5665 28.7936C31.7323 28.9761 31.8991 29.1641 32.0473 29.3721C32.2016 29.574 32.3364 29.7972 32.4601 30.0272C32.5156 30.1463 32.5743 30.2641 32.6263 30.3855L32.7541 30.7615C32.8173 31.0167 32.8804 31.2777 32.8916 31.5389C32.9261 31.8015 32.902 32.0573 32.9001 32.3167L32.1971 31.8849C32.274 31.8389 32.3297 31.8092 32.3955 31.7755L32.5873 31.6839C32.7169 31.6268 32.8504 31.5748 32.9885 31.5311C33.1264 31.4863 33.2721 31.4524 33.4208 31.4247C33.5735 31.4024 33.7299 31.3876 33.896 31.3945C33.9759 31.392 34.0644 31.4124 34.1484 31.4228C34.2323 31.4309 34.3185 31.4607 34.404 31.4892C34.4899 31.514 34.5731 31.5489 34.6523 31.5983C34.7307 31.6457 34.8168 31.6853 34.8804 31.7492C34.9488 31.8085 35.0175 31.8693 35.0803 31.9328L35.2341 32.1404C35.3375 32.2809 35.3832 32.4289 35.4548 32.5755L34.6883 32.3273C34.7941 32.2576 34.8748 32.2131 34.9677 32.1612C35.058 32.1148 35.1476 32.0655 35.2412 32.0247C35.4248 31.9376 35.6151 31.8627 35.812 31.8007C36.0077 31.7373 36.21 31.6839 36.4203 31.6527C36.5251 31.6372 36.6284 31.6164 36.738 31.6141C36.8461 31.6104 36.9528 31.5971 37.0628 31.6037L37.3935 31.6253L37.7231 31.6905C37.8341 31.7069 37.9379 31.7588 38.0449 31.794C38.1527 31.83 38.2567 31.8733 38.3525 31.9331C38.4496 31.9891 38.5517 32.0407 38.6428 32.1041L38.9025 32.3111C39.0764 32.4491 39.2001 32.624 39.3473 32.7817L38.6015 32.6885C38.7245 32.5985 38.8123 32.5455 38.9185 32.4853C39.0203 32.4271 39.1247 32.376 39.2303 32.3277C39.4405 32.2309 39.6613 32.1556 39.8872 32.0956C40.0017 32.0715 40.1157 32.0436 40.2321 32.0244L40.584 31.9855L40.9403 31.9839C41.0588 31.9884 41.1771 32.0076 41.2952 32.0203C41.4145 32.0288 41.5279 32.0659 41.6433 32.0925C41.7585 32.12 41.8737 32.1489 41.9812 32.1968L42.3071 32.3281L42.6103 32.4965C42.8191 32.6019 42.9811 32.7587 43.1661 32.8896C43.2547 32.9589 43.3289 33.0401 43.4107 33.1155L43.6492 33.3461L43.1453 33.2179C43.2724 33.1823 43.3657 33.1633 43.4728 33.1425C43.5764 33.124 43.6804 33.1073 43.7841 33.0959C43.9915 33.0695 44.2003 33.0595 44.4095 33.0587C44.514 33.0561 44.6195 33.0665 44.7243 33.0699C44.8291 33.0721 44.9343 33.0921 45.0391 33.1032C45.2479 33.1325 45.4581 33.1733 45.6621 33.2383C45.7632 33.2731 45.8676 33.2972 45.9657 33.3417L46.26 33.4741C46.3556 33.5231 46.4463 33.5824 46.5388 33.6369C46.6335 33.6888 46.7189 33.7531 46.8023 33.8209C46.8851 33.8884 46.9739 33.95 47.0504 34.0237L47.2731 34.2515C47.4228 34.402 47.532 34.5816 47.6609 34.7459L47.0545 34.6921C47.1441 34.6093 47.2117 34.5585 47.2924 34.5004C47.3704 34.4451 47.4507 34.3939 47.5335 34.3468C47.6977 34.2508 47.8751 34.1744 48.0571 34.1116C48.2421 34.052 48.4353 34.0171 48.6308 34L48.9255 33.9985L49.2172 34.0393C49.3135 34.0545 49.4041 34.0909 49.4973 34.1172C49.5917 34.1413 49.6769 34.1832 49.7616 34.2259C49.8444 34.2704 49.9367 34.3023 50.0101 34.3583L50.2384 34.5156C50.3175 34.5645 50.3773 34.6312 50.4457 34.6905L50.6431 34.8731L50.9831 35.2751L50.604 35.2603C50.7564 35.1185 50.9057 35.0084 51.0663 34.8964C51.2268 34.7889 51.3921 34.6876 51.5697 34.6045C51.6585 34.5631 51.7448 34.5185 51.8399 34.4892C51.9339 34.4577 52.0239 34.4191 52.1239 34.402C52.2227 34.3835 52.3171 34.3531 52.42 34.3549C52.5217 34.3557 52.6207 34.3331 52.7221 34.3568C52.822 34.3772 52.9253 34.3747 53.0189 34.4169C53.1115 34.4563 53.2096 34.484 53.2947 34.5348L53.5359 34.7043C53.608 34.7685 53.6681 34.8445 53.7321 34.9147C53.8004 34.9825 53.8509 35.0619 53.8956 35.1445L54.0375 35.3856C54.1104 35.5555 54.1739 35.7283 54.2415 35.8971C54.1501 35.7376 54.0639 35.5773 53.9703 35.4239L53.8023 35.2124C53.7492 35.1397 53.692 35.0723 53.6199 35.0196C53.5515 34.9647 53.4909 34.9009 53.4203 34.8516L53.1951 34.7296C53.1185 34.6947 53.0339 34.6836 52.9555 34.6587C52.8771 34.6312 52.7889 34.6472 52.7083 34.6379C52.6273 34.626 52.5429 34.658 52.462 34.6653C52.3799 34.6713 52.3003 34.7103 52.2204 34.7317C52.1391 34.7517 52.0632 34.7948 51.986 34.8289C51.9076 34.8608 51.8347 34.9083 51.7608 34.9513C51.6129 35.0388 51.4735 35.1435 51.3397 35.2532C51.2093 35.3633 51.0748 35.4865 50.97 35.6048L50.7999 35.798L50.5907 35.59L50.2603 35.2613L50.0812 35.1204C50.0205 35.076 49.9656 35.0211 49.8991 34.9888L49.7084 34.8772C49.6472 34.8352 49.5757 34.8212 49.5112 34.7911C49.4453 34.7636 49.3796 34.7351 49.3108 34.7259C49.2425 34.7136 49.1763 34.6888 49.1076 34.6847L48.9032 34.6713L48.7 34.688C48.5651 34.7107 48.4335 34.7473 48.3031 34.7952C48.1749 34.8485 48.0485 34.9101 47.9308 34.9888C47.8709 35.0269 47.8137 35.0677 47.7591 35.1119C47.7071 35.1527 47.6465 35.2068 47.616 35.2384L47.3303 35.5351L47.01 35.1847C46.8967 35.0611 46.8041 34.9187 46.6796 34.8096L46.4983 34.6424C46.4369 34.5879 46.3648 34.5475 46.2999 34.4985C46.2348 34.4495 46.1676 34.4039 46.0928 34.3697C46.02 34.3335 45.9509 34.2912 45.8763 34.2585L45.6477 34.1703C45.5729 34.1387 45.4905 34.1243 45.4128 34.0995C45.2556 34.0545 45.0903 34.0283 44.9245 34.0104C44.8409 34.0052 44.7592 33.9904 44.6741 33.9923C44.5897 33.9929 44.5057 33.9859 44.4211 33.9911C44.2524 33.9975 44.0825 34.0112 43.9149 34.0383C43.8309 34.0501 43.7484 34.0664 43.6664 34.0839C43.5887 34.1009 43.4972 34.1247 43.4423 34.1421L43.1763 34.2267L42.9388 34.0137L42.7367 33.8324C42.6683 33.7737 42.6051 33.7063 42.5333 33.6547L42.3164 33.5027C42.2461 33.4477 42.1721 33.4021 42.0949 33.3647L41.8685 33.2408L41.6319 33.15C41.5549 33.1144 41.4732 33.0965 41.3919 33.0788C41.3104 33.0617 41.2309 33.0324 41.1473 33.0305C41.0648 33.0239 40.9827 33.0091 40.8995 33.0068L40.6501 33.0101L40.4004 33.0409C40.3176 33.0557 40.2355 33.078 40.1529 33.0951C39.9895 33.1407 39.8275 33.1975 39.6721 33.2712C39.5944 33.3076 39.5183 33.3455 39.4455 33.3892C39.3763 33.4277 39.2937 33.4827 39.254 33.5112L38.8836 33.7823L38.5087 33.4185C38.402 33.3151 38.3139 33.1852 38.1995 33.0984L38.0337 32.9608C37.9757 32.9196 37.9119 32.8907 37.8524 32.8532C37.794 32.8128 37.7293 32.7865 37.6625 32.7647C37.5956 32.7443 37.5355 32.7049 37.4637 32.6975L37.2552 32.6527L37.0371 32.6363C36.9643 32.6296 36.8877 32.6411 36.8131 32.6415C36.7387 32.6408 36.6615 32.6571 36.5852 32.6671C36.4333 32.6868 36.2783 32.7257 36.1263 32.7739C35.9732 32.8195 35.8209 32.8777 35.6737 32.9456C35.5987 32.9772 35.528 33.0157 35.4552 33.0513C35.388 33.088 35.3084 33.1325 35.2612 33.1629L34.8027 33.4556L34.4947 32.9148C34.4523 32.8407 34.4281 32.7431 34.3809 32.6833C34.3591 32.6519 34.3383 32.6196 34.3181 32.5859C34.2925 32.5621 34.2669 32.5403 34.2435 32.5143C34.2235 32.4839 34.1885 32.4772 34.1621 32.4564C34.1368 32.4349 34.1052 32.4204 34.0699 32.4112C34.0365 32.3993 34.0056 32.3815 33.964 32.3789C33.9232 32.3752 33.8889 32.3585 33.8429 32.3608C33.7575 32.3537 33.6637 32.3592 33.5672 32.3692C33.4687 32.3852 33.3688 32.4033 33.2669 32.4331C33.1655 32.4616 33.0625 32.4976 32.9619 32.5384L32.8121 32.6033C32.7653 32.6256 32.7099 32.6533 32.6783 32.6708L31.9533 33.0672L31.9756 32.2384C31.9812 32.0259 32.012 31.8085 31.9891 31.6C31.9864 31.3879 31.9471 31.184 31.9099 30.9785L31.8263 30.6773L31.7084 30.3843C31.6181 30.1925 31.5189 30.0023 31.3937 29.8203C31.2777 29.6352 31.1373 29.4587 30.9939 29.2824C30.8508 29.1059 30.6936 28.9353 30.5395 28.7609L29.5725 27.7159C29.256 27.3624 28.9208 26.9919 28.6399 26.6125C28.4931 26.4341 28.3507 26.2093 28.2177 26.0049C28.1479 25.9033 28.1032 25.7776 28.0464 25.6656C27.9851 25.5555 27.9535 25.4264 27.9223 25.2988C27.8468 25.05 27.8717 24.7588 27.9709 24.5092C28.0876 24.2577 28.2924 24.0812 28.5045 23.9477C28.9472 23.7059 29.4328 23.6199 29.9092 23.5953Z" fill="white"/>
</mask>
<g mask="url(#mask17_920_48)">
<path fill-rule="evenodd" clip-rule="evenodd" d="M27.8548 35.9351H54.2528V23.5626H27.8548V35.9351Z" fill="#4CA32B"/>
</g>
<mask id="mask18_920_48" style="mask-type:alpha" maskUnits="userSpaceOnUse" x="12" y="25" width="18" height="27">
<path d="M29.3436 51.948C29.1995 51.6068 29.1203 51.2351 29.1117 50.8557C29.1051 50.6659 29.1288 50.4744 29.1693 50.2857C29.2065 50.0951 29.2839 49.914 29.3689 49.736L29.4031 49.9137C29.2997 49.8376 29.2132 49.7639 29.1273 49.6796C29.0412 49.5977 28.9609 49.5095 28.8863 49.416C28.8127 49.3221 28.7416 49.2243 28.6807 49.12C28.6172 49.0169 28.5619 48.9068 28.5165 48.7929C28.4675 48.6797 28.4344 48.5596 28.4043 48.438C28.3893 48.3775 28.3845 48.3148 28.3745 48.2521C28.3633 48.1903 28.3593 48.1275 28.3604 48.0641C28.3529 47.9372 28.3649 47.8116 28.3839 47.6859C28.3972 47.5589 28.4407 47.4407 28.4708 47.3172L28.6417 47.6628C28.5061 47.6224 28.3945 47.5797 28.2757 47.5319C28.1597 47.4829 28.0445 47.4321 27.9331 47.3732C27.8193 47.3191 27.7124 47.2519 27.6031 47.1873C27.4928 47.1251 27.3935 47.0445 27.288 46.9729C27.184 46.8992 27.0903 46.8095 26.9911 46.7275C26.8937 46.6436 26.8105 46.542 26.7195 46.4485C26.6261 46.3577 26.5596 46.2416 26.4791 46.1377C26.3951 46.0351 26.3404 45.9133 26.2784 45.7955L26.1873 45.6177L26.1235 45.4291C26.0863 45.3017 26.0264 45.1779 26.0137 45.0459L25.9513 44.652C25.9432 44.5211 25.9476 44.3901 25.9465 44.2589L25.9476 44.0612L25.9752 43.8699L26.0343 43.4864C26.0561 43.3591 26.1019 43.2416 26.1353 43.1184L26.2449 42.7528L26.3437 43.22C26.2445 43.1225 26.1676 43.0401 26.0859 42.9479C26.0079 42.8569 25.9291 42.7661 25.8559 42.6715C25.7061 42.4845 25.5668 42.2903 25.4367 42.0885C25.3063 41.8875 25.1817 41.6809 25.0752 41.4632C25.022 41.3537 24.9621 41.2484 24.9187 41.1335C24.8727 41.0208 24.8228 40.9084 24.7801 40.7933L24.6672 40.4403C24.6285 40.3231 24.6099 40.1977 24.5809 40.0765C24.5504 39.9552 24.5323 39.8309 24.5223 39.7041C24.5129 39.5776 24.4876 39.4531 24.4928 39.3247L24.5029 38.9408C24.5096 38.8132 24.5389 38.6868 24.5572 38.5592C24.5747 38.4312 24.6007 38.3055 24.6441 38.1839L24.7608 37.8156L25.226 38.5128C24.9767 38.5032 24.7719 38.4795 24.5493 38.4499C24.3316 38.4197 24.1157 38.3797 23.9009 38.3344C23.4724 38.2403 23.0488 38.1141 22.636 37.9503C21.8111 37.6264 21.0285 37.1217 20.4195 36.4315C20.2723 36.2557 20.1285 36.0765 20.0063 35.8815C19.8792 35.6908 19.7692 35.488 19.6744 35.2811C19.5756 35.074 19.4987 34.8604 19.4303 34.6439C19.3685 34.4272 19.3099 34.208 19.2749 33.9873C19.2393 33.7667 19.2117 33.5457 19.2047 33.3249C19.1839 33.1036 19.1973 32.8855 19.1992 32.6667C19.204 32.4483 19.2333 32.2335 19.2504 32.0173L19.3492 31.3801L19.9813 31.8931C19.8219 31.9497 19.6867 31.9895 19.5395 32.0307C19.3949 32.0703 19.2508 32.1067 19.1048 32.1385C18.8131 32.2035 18.518 32.2543 18.2189 32.2832C17.6213 32.3425 17.0052 32.3411 16.394 32.2024C15.7879 32.0703 15.1752 31.7788 14.7408 31.3011C14.6277 31.1865 14.5349 31.0575 14.4424 30.9291C14.3625 30.7945 14.2744 30.6628 14.2153 30.5196C14.1459 30.3805 14.0949 30.2363 14.0469 30.092C13.9961 29.9481 13.9697 29.8005 13.9307 29.6552L14.1079 29.8536C13.9745 29.7945 13.8749 29.7393 13.7695 29.6719C13.6643 29.6084 13.5684 29.5324 13.4725 29.4589C13.3825 29.3773 13.2878 29.3017 13.2068 29.2116C13.1254 29.1221 13.04 29.0376 12.9716 28.9371C12.8984 28.8415 12.8274 28.7451 12.7717 28.6385C12.7104 28.5355 12.6513 28.432 12.61 28.32C12.5658 28.2095 12.5131 28.1027 12.4889 27.9865C12.4614 27.872 12.4209 27.7603 12.4064 27.6443L12.3674 27.2975C12.3573 27.1821 12.3689 27.0664 12.3689 26.9519C12.3692 26.8368 12.3733 26.7229 12.3956 26.6105L12.4473 26.2743C12.464 26.1623 12.5052 26.0553 12.5335 25.9467L12.6282 25.6237L12.8813 25.0036L12.7152 25.6477L12.6661 25.9741C12.6531 26.0832 12.6286 26.19 12.6238 26.2991L12.6108 26.6247C12.6015 26.7327 12.61 26.8399 12.6219 26.9469C12.6342 27.0535 12.6349 27.1609 12.6561 27.2652L12.7271 27.5741C12.7516 27.6761 12.7969 27.7721 12.8297 27.8705C12.8594 27.9707 12.9166 28.0596 12.9631 28.1512C13.0065 28.2455 13.0667 28.3292 13.1273 28.4123C13.1827 28.4995 13.2518 28.5759 13.3213 28.6512C13.3859 28.7309 13.4661 28.7959 13.5416 28.8652C13.616 28.9349 13.7032 28.9901 13.7839 29.0517C13.8712 29.1051 13.9552 29.1623 14.0455 29.2083C14.1303 29.2564 14.2324 29.3003 14.3052 29.3265L14.4275 29.3711L14.4829 29.5253C14.5267 29.6477 14.5579 29.7757 14.6107 29.8932C14.6597 30.0123 14.7113 30.1299 14.7764 30.2377C14.8321 30.352 14.9113 30.4488 14.9808 30.5512C15.0615 30.6451 15.1387 30.7407 15.2312 30.8204C15.5887 31.152 16.0495 31.3549 16.5512 31.4368C17.0517 31.524 17.5835 31.5017 18.1077 31.4213C18.3697 31.3797 18.6321 31.3267 18.8919 31.2607C19.0212 31.228 19.1501 31.1913 19.2772 31.152C19.4016 31.1135 19.5357 31.0679 19.6421 31.0263L20.3727 30.7407L20.2028 32.1163C20.1953 32.308 20.1741 32.5001 20.1764 32.6904C20.1816 32.8796 20.1745 33.0709 20.1995 33.2568C20.2107 33.4452 20.2404 33.6288 20.2756 33.8108C20.3057 33.9933 20.3567 34.1703 20.4079 34.3453C20.4652 34.5188 20.528 34.6891 20.6079 34.8515C20.6852 35.0147 20.7728 35.1735 20.8743 35.3219C20.9712 35.4743 21.0872 35.6133 21.2035 35.7513C21.3269 35.8844 21.4555 36.0124 21.5952 36.1315C21.7356 36.2483 21.8813 36.3607 22.0373 36.4615C22.3469 36.6644 22.6832 36.8365 23.034 36.9815C23.3855 37.1257 23.7537 37.24 24.1299 37.3268C24.3183 37.3683 24.5081 37.4061 24.6987 37.434C24.8845 37.4617 25.0908 37.4852 25.2535 37.4933L25.932 37.526L25.7188 38.1905L25.6311 38.4635C25.5953 38.5533 25.576 38.6468 25.5635 38.7417C25.5504 38.8359 25.5244 38.9289 25.5188 39.0247L25.508 39.3132C25.4988 39.4093 25.5184 39.5072 25.5219 39.6044C25.5252 39.7019 25.5359 39.7999 25.5583 39.8969C25.5791 39.9941 25.588 40.0932 25.6173 40.1896L25.7001 40.4808L25.8068 40.7675C25.8392 40.8643 25.8889 40.9565 25.9301 41.0508C26.0149 41.2392 26.1175 41.422 26.226 41.6012C26.3337 41.7811 26.4519 41.9564 26.5783 42.1248C26.6396 42.2109 26.7064 42.2921 26.7719 42.3741C26.8372 42.4523 26.9089 42.5388 26.9677 42.6021L27.1587 42.8095L27.0665 43.0699L26.9599 43.3732C26.9268 43.4745 26.8796 43.5749 26.8573 43.6773L26.7937 43.9859L26.7615 44.1405L26.7544 44.2941C26.7507 44.3965 26.7395 44.5003 26.7395 44.6027L26.7725 44.9053C26.7737 45.0092 26.8191 45.1015 26.8405 45.2001L26.8796 45.3471L26.9435 45.4857C26.9869 45.5773 27.0204 45.6753 27.0811 45.7595C27.1397 45.8444 27.1813 45.9408 27.2527 46.0187C27.3215 46.0981 27.3801 46.186 27.4563 46.2609C27.5344 46.334 27.6045 46.4148 27.6881 46.4835C27.774 46.5495 27.8524 46.6251 27.9439 46.6852C28.0341 46.7475 28.1219 46.8131 28.2184 46.8665C28.3117 46.9259 28.4095 46.9767 28.5076 47.0275C28.6041 47.0749 28.7108 47.1236 28.8 47.1573L29.0464 47.2519L28.9709 47.5029C28.9431 47.5957 28.8959 47.6855 28.8788 47.7811C28.8549 47.8757 28.836 47.9713 28.8335 48.0693C28.8271 48.1179 28.8256 48.1668 28.8305 48.2157C28.8341 48.2644 28.832 48.3144 28.8397 48.3631C28.8549 48.4613 28.8717 48.5596 28.9033 48.656C28.9319 48.7528 28.9691 48.8489 29.0152 48.9416C29.0587 49.0351 29.1117 49.1256 29.1687 49.2135C29.2269 49.3007 29.2891 49.3875 29.3573 49.4687C29.4236 49.5503 29.5008 49.6315 29.5721 49.6971L29.664 49.782L29.6071 49.8751C29.5164 50.0216 29.4284 50.174 29.376 50.3428C29.3184 50.5093 29.2797 50.684 29.2612 50.8624C29.2203 51.2199 29.2471 51.5912 29.3436 51.948Z" fill="white"/>
</mask>
<g mask="url(#mask18_920_48)">
<path fill-rule="evenodd" clip-rule="evenodd" d="M12.3372 51.9573H29.6832V24.9869H12.3372V51.9573Z" fill="#4CA32B"/>
</g>
<mask id="mask19_920_48" style="mask-type:alpha" maskUnits="userSpaceOnUse" x="30" y="36" width="25" height="17">
<path d="M54.2419 41.5086C54.13 41.6152 54.0063 41.7105 53.8773 41.7972C53.7492 41.8862 53.6132 41.9645 53.4701 42.0316C53.3277 42.0992 53.1792 42.1588 53.0223 42.1952C52.9447 42.2182 52.8655 42.233 52.7841 42.2397C52.7028 42.2501 52.6217 42.2624 52.5392 42.2556C52.4575 42.2493 52.3732 42.2601 52.2921 42.2389C52.2112 42.223 52.1282 42.2093 52.0469 42.1893L51.8124 42.0992C51.7311 42.0732 51.6675 42.0186 51.5939 41.9786C51.5223 41.9348 51.4472 41.894 51.3884 41.8361L51.2019 41.6718C51.1372 41.6181 51.0933 41.5498 51.038 41.489L50.8801 41.3002L51.19 41.3198C51.0581 41.4764 50.9247 41.6048 50.7787 41.7345C50.6327 41.861 50.4807 41.983 50.3127 42.0873C50.2309 42.1421 50.1465 42.1941 50.0559 42.2378C49.9675 42.2845 49.8787 42.3317 49.7809 42.3646C49.6847 42.3998 49.5911 42.4418 49.4869 42.4596C49.3837 42.4781 49.2848 42.516 49.1762 42.5164C49.0697 42.5197 48.9619 42.5353 48.8545 42.526L48.5301 42.4826C48.4264 42.4518 48.3243 42.4148 48.2209 42.3788C48.1132 42.3498 48.0315 42.2812 47.936 42.2316C47.8435 42.1774 47.7478 42.125 47.6744 42.0532L47.4388 41.8484C47.3592 41.7805 47.3043 41.6982 47.2363 41.6229L47.0419 41.39L47.5413 41.479C47.445 41.548 47.3656 41.5977 47.2771 41.6522C47.1883 41.7004 47.1013 41.753 47.0096 41.7961C46.8286 41.8866 46.6409 41.9674 46.4432 42.0294C46.3463 42.065 46.2456 42.0917 46.1426 42.1144C46.0412 42.1418 45.9375 42.161 45.8297 42.1718C45.7239 42.1866 45.6172 42.2008 45.5065 42.1966C45.3961 42.1937 45.2868 42.2048 45.1753 42.1825C45.0651 42.1637 44.9517 42.1562 44.8432 42.124L44.5184 42.0172C44.4163 41.9686 44.3173 41.9118 44.2171 41.8573C44.1119 41.808 44.0339 41.7286 43.9447 41.6608C43.86 41.5888 43.7648 41.5228 43.6997 41.4374L43.4872 41.1909C43.4121 41.1096 43.3709 41.0158 43.3118 40.9278L43.1487 40.659L43.8814 40.7744C43.7722 40.8816 43.6849 40.9538 43.5835 41.0344C43.4847 41.111 43.3836 41.1845 43.2776 41.2517C43.0696 41.39 42.8436 41.5038 42.6099 41.6054C42.4909 41.6522 42.3676 41.6918 42.2465 41.7338C42.1212 41.7676 41.9927 41.7936 41.8656 41.8221C41.7363 41.844 41.6032 41.8506 41.4717 41.8636C41.3401 41.8777 41.2064 41.8581 41.0733 41.8548C40.9388 41.8544 40.8103 41.8213 40.6795 41.7953C40.5487 41.7698 40.4179 41.742 40.2975 41.6893C40.176 41.6422 40.0492 41.5992 39.9315 41.545L39.5971 41.3521C39.4811 41.2913 39.3827 41.2142 39.2856 41.136L38.9909 40.9016C38.8125 40.7332 38.6468 40.5544 38.4759 40.3797L39.124 40.4925C38.9955 40.5629 38.8965 40.6064 38.7836 40.6576C38.6725 40.7017 38.5621 40.7492 38.4484 40.7854C38.2232 40.8656 37.9899 40.9268 37.7495 40.9701C37.6313 40.9969 37.5072 41.0069 37.3841 41.0194C37.2619 41.0365 37.1356 41.0354 37.0089 41.0344C36.8833 41.038 36.7559 41.028 36.6272 41.0073C36.4991 40.9917 36.3716 40.9753 36.2456 40.933C36.1208 40.893 35.9892 40.8726 35.8717 40.8088C35.7529 40.7521 35.6299 40.6998 35.5161 40.6338L35.1959 40.4038C35.0859 40.33 35.0097 40.2265 34.9168 40.138C34.8276 40.0456 34.7347 39.9544 34.6708 39.8493L34.4608 39.542C34.388 39.4402 34.3493 39.3282 34.2925 39.2218L34.1372 38.8981L35.0293 39.0257C34.9507 39.1188 34.8964 39.171 34.828 39.236C34.7619 39.2964 34.6943 39.3546 34.6229 39.4084C34.4824 39.5185 34.3252 39.6116 34.1609 39.6954L33.9005 39.8018L33.6221 39.8772L33.3316 39.9132C33.2339 39.9157 33.1351 39.9094 33.0373 39.9057C32.9392 39.9024 32.8463 39.8738 32.7508 39.8572C32.6535 39.8412 32.5665 39.8074 32.4792 39.7729C32.394 39.7366 32.2981 39.711 32.2243 39.6621L31.9909 39.5264C31.9095 39.4837 31.8496 39.425 31.7801 39.3728L31.5803 39.2104L31.2373 38.854L32.0949 38.4096C32.1447 38.6262 32.1759 38.8186 32.2093 39.0238C32.2399 39.2256 32.2632 39.4288 32.2833 39.6324C32.2989 39.8374 32.3137 40.0422 32.3156 40.2496C32.3205 40.4565 32.3149 40.6657 32.2989 40.8764C32.2856 41.0866 32.2547 41.2996 32.212 41.5138C32.1956 41.62 32.1559 41.7282 32.1284 41.835C32.1024 41.9426 32.0589 42.0494 32.0101 42.1558C31.9645 42.2624 31.9199 42.368 31.8471 42.4685C31.7753 42.568 31.7275 42.6769 31.6308 42.7633C31.5405 42.8513 31.4607 42.9492 31.3569 43.0218C31.2503 43.092 31.1415 43.1594 31.0321 43.224L31.1377 42.5557C31.2251 42.6458 31.2931 42.7241 31.3665 42.809C31.4372 42.894 31.5085 42.977 31.5751 43.0641C31.7096 43.2373 31.8375 43.415 31.9563 43.5993C32.0775 43.7821 32.1852 43.975 32.2896 44.1693C32.3873 44.3689 32.4828 44.5692 32.5549 44.7832C32.5973 44.8862 32.6237 44.9976 32.6527 45.1069C32.6828 45.2164 32.7125 45.325 32.7252 45.4404C32.7385 45.555 32.7645 45.6662 32.766 45.7824L32.7683 46.1309C32.7589 46.247 32.7359 46.3638 32.7196 46.4792C32.7088 46.5957 32.6616 46.7058 32.6252 46.8174C32.5869 46.928 32.5535 47.0408 32.4888 47.139L32.316 47.4416L32.1823 47.037C32.2729 47.0766 32.3376 47.112 32.4093 47.1534C32.4792 47.1936 32.546 47.2373 32.6107 47.284C32.7411 47.3756 32.8608 47.4813 32.9745 47.5922C33.086 47.7065 33.1863 47.8296 33.2773 47.9605L33.3992 48.166C33.4397 48.2338 33.4657 48.3102 33.4984 48.3818C33.5337 48.4537 33.5537 48.5301 33.5749 48.6062C33.5955 48.6822 33.6217 48.7572 33.6285 48.835L33.6612 49.0672L33.6631 49.299C33.6723 49.454 33.6321 49.6028 33.6165 49.7537C33.6061 49.8282 33.5801 49.8998 33.5624 49.9725L33.504 50.1894L33.5029 50.1194C33.5909 50.4832 33.6645 50.8445 33.7065 51.2138C33.7288 51.3978 33.7415 51.5836 33.7429 51.769C33.7429 51.9534 33.7344 52.1421 33.6772 52.318C33.7124 52.1369 33.6976 51.953 33.6753 51.7732C33.6515 51.5925 33.6169 51.4137 33.5728 51.2372C33.4855 50.8845 33.3828 50.5321 33.2607 50.1928L33.252 50.169L33.2595 50.1224L33.2933 49.9169C33.3023 49.849 33.3197 49.7812 33.3219 49.7129C33.3212 49.5764 33.3445 49.44 33.3231 49.3068L33.3044 49.1076L33.2603 48.9144C33.2501 48.8488 33.2212 48.789 33.1993 48.7274C33.1763 48.6662 33.1559 48.6048 33.1212 48.549C33.0881 48.4928 33.064 48.4322 33.0253 48.3796L32.9128 48.2212C32.8292 48.121 32.7392 48.028 32.6404 47.942C32.5393 47.8593 32.4345 47.781 32.3216 47.715C32.2647 47.6816 32.2083 47.6501 32.1507 47.6216C32.0949 47.5929 32.0292 47.5644 31.9853 47.5488L31.7055 47.4486L31.8519 47.1445L31.97 46.8972C32.0172 46.8185 32.0347 46.7292 32.0577 46.6424C32.0793 46.5552 32.1135 46.4718 32.1128 46.3798C32.1183 46.2897 32.1317 46.2014 32.1332 46.1113L32.1131 45.8398C32.1068 45.7493 32.0771 45.6585 32.0611 45.5686C32.0469 45.4778 32.0147 45.3888 31.9839 45.3002C31.9533 45.2116 31.9273 45.1221 31.8839 45.0357C31.8113 44.8606 31.7229 44.6897 31.6297 44.5209C31.5289 44.3548 31.4268 44.1894 31.3108 44.0314C31.1972 43.8722 31.0745 43.718 30.9467 43.5685C30.8839 43.4933 30.8159 43.4221 30.7505 43.3501C30.6847 43.2808 30.6123 43.2058 30.5517 43.1498L30.2083 42.8301L30.6572 42.4812C30.7125 42.4385 30.768 42.3988 30.8256 42.3617C30.8809 42.3217 30.9188 42.2574 30.9689 42.21C31.0229 42.167 31.0463 42.0857 31.0883 42.0268C31.1311 41.9682 31.1571 41.8914 31.1841 41.8169C31.2143 41.7442 31.2447 41.6712 31.2607 41.5869C31.2777 41.5046 31.3068 41.4286 31.3168 41.3418C31.3451 41.172 31.3659 40.9988 31.3717 40.8196C31.3804 40.642 31.3804 40.4606 31.3707 40.2789C31.364 40.0964 31.3447 39.9132 31.3261 39.73C31.3023 39.5464 31.2759 39.3636 31.2432 39.1806C31.2095 39.002 31.1715 38.8109 31.1284 38.6488L30.6751 36.918L31.9868 38.2045L32.2569 38.4697L32.4008 38.5776C32.4491 38.6106 32.4929 38.6585 32.5435 38.6804L32.6895 38.7634C32.7367 38.7972 32.7876 38.8024 32.8363 38.8246C32.8845 38.8442 32.9332 38.865 32.9819 38.8688C33.0309 38.8746 33.0789 38.8948 33.1272 38.8933L33.2717 38.8966C33.3197 38.8881 33.368 38.8817 33.4163 38.8773L33.5612 38.8361L33.7055 38.7757C33.7997 38.7245 33.8949 38.6689 33.9833 38.5977C34.0283 38.5638 34.0707 38.5265 34.1116 38.4878C34.1491 38.453 34.1971 38.4014 34.2123 38.3833L34.7321 37.7669L35.1044 38.5109L35.2289 38.7605C35.2732 38.8406 35.3036 38.9344 35.3583 39.0041L35.5113 39.2229C35.5567 39.302 35.6213 39.3576 35.6812 39.4177C35.744 39.4737 35.7931 39.5505 35.8644 39.5916L36.0657 39.7352L36.2861 39.843C36.3552 39.8876 36.4425 39.8942 36.5195 39.9228C36.5972 39.9529 36.6823 39.9625 36.7669 39.9733C36.8505 39.9888 36.9368 39.9973 37.026 39.9937C37.114 39.9958 37.2021 39.9992 37.2932 39.9858C37.3831 39.9773 37.4733 39.9733 37.5648 39.9521C37.7461 39.9217 37.9297 39.8757 38.1088 39.8134C38.1995 39.7864 38.286 39.7489 38.3745 39.7152C38.4573 39.6792 38.554 39.6354 38.6137 39.6034L38.9657 39.4165L39.2623 39.7169C39.4027 39.8594 39.538 40.01 39.6803 40.1486L39.9077 40.3316C39.9828 40.3949 40.0581 40.4569 40.1421 40.4984L40.3856 40.6438C40.4688 40.6834 40.5549 40.7136 40.6397 40.7506C40.7229 40.7929 40.8117 40.8114 40.8999 40.8308C40.9879 40.8508 41.0748 40.8808 41.1655 40.8801C41.2559 40.8822 41.3453 40.9038 41.4368 40.8945C41.5279 40.886 41.6192 40.887 41.7103 40.8741L41.9845 40.8192L42.2551 40.7321C42.4331 40.6597 42.6095 40.5785 42.776 40.474C42.8607 40.4242 42.9413 40.3689 43.0201 40.3112C43.0956 40.2558 43.1803 40.1865 43.232 40.1397L43.6693 39.7437L44.0854 40.4636C44.1278 40.5296 44.1576 40.6108 44.21 40.6657L44.352 40.8462C44.3947 40.9138 44.4564 40.9528 44.5099 41.0042C44.5656 41.0502 44.6143 41.1122 44.6797 41.1418L44.8648 41.2538L45.0669 41.3306C45.1345 41.3562 45.2103 41.3606 45.2816 41.3789C45.3527 41.4 45.4317 41.3922 45.5076 41.3993C45.5831 41.4074 45.6619 41.3997 45.7403 41.3922C45.8189 41.3893 45.8981 41.3781 45.978 41.36C46.0579 41.347 46.1378 41.33 46.2173 41.3046C46.3768 41.2632 46.5355 41.2034 46.6896 41.1352C46.7688 41.1037 46.8427 41.0625 46.9189 41.0258C46.9913 40.9872 47.0724 40.943 47.1296 40.9074L47.4265 40.7221L47.6291 40.9965L47.7751 41.1949C47.826 41.2584 47.868 41.3352 47.9256 41.3889L48.0957 41.5565C48.1485 41.6192 48.2151 41.6566 48.2781 41.7001C48.3436 41.7378 48.4008 41.7998 48.4733 41.8194L48.6817 41.907L48.9032 41.9508C48.9783 41.9634 49.056 41.9545 49.1328 41.9585C49.2101 41.967 49.2885 41.9385 49.3669 41.9314C49.4468 41.9252 49.5237 41.894 49.6025 41.8729C49.6821 41.854 49.7589 41.8206 49.8363 41.7872C49.9143 41.7582 49.9901 41.7197 50.0652 41.6778C50.2172 41.6006 50.3613 41.5032 50.5019 41.4004C50.6397 41.298 50.7805 41.182 50.8953 41.0666L51.0685 40.893L51.2052 41.0862L51.3297 41.2621C51.3736 41.3188 51.4081 41.386 51.4595 41.4349L51.6073 41.5892C51.6531 41.646 51.7121 41.6841 51.7683 41.7268C51.8269 41.7653 51.8771 41.8217 51.9425 41.8477L52.1328 41.9441L52.3371 42.0072C52.4048 42.0334 52.4787 42.0294 52.55 42.0428C52.6217 42.0569 52.6949 42.0524 52.7685 42.0505C52.8425 42.0524 52.916 42.0461 52.9892 42.032C53.1372 42.0149 53.2839 41.9764 53.4277 41.9285C53.5712 41.8806 53.7128 41.8213 53.8484 41.7497C53.9848 41.68 54.1175 41.6006 54.2419 41.5086Z" fill="white"/>
</mask>
<g mask="url(#mask19_920_48)">
<path fill-rule="evenodd" clip-rule="evenodd" d="M30.1732 52.3577H54.2524V36.9144H30.1732V52.3577Z" fill="#4CA32B"/>
</g>
<mask id="mask20_920_48" style="mask-type:alpha" maskUnits="userSpaceOnUse" x="47" y="36" width="6" height="5">
<path d="M52.9404 38.8796C52.9404 38.8796 52.3153 36.3384 51.3887 37.8281C50.4623 39.318 50.9932 41.6841 48.7808 39.8439C46.5683 38.0032 48.2497 37.3597 48.2497 37.3597C48.2497 37.3597 48.1613 38.3541 49.2233 38.5291C49.2233 38.5291 48.9164 36.9517 49.822 36.6888C50.7279 36.4259 52.9404 36.2504 52.9404 38.8796Z" fill="white"/>
</mask>
<g mask="url(#mask20_920_48)">
<path fill-rule="evenodd" clip-rule="evenodd" d="M47.6086 40.5192H52.9597V36.5137H47.6086V40.5192Z" fill="#D2403C"/>
</g>
<mask id="mask21_920_48" style="mask-type:alpha" maskUnits="userSpaceOnUse" x="40" y="35" width="7" height="5">
<path d="M46.2145 37.8281C46.2145 37.8281 45.5899 35.2865 44.6631 36.7764C43.7367 38.2661 44.2677 40.6324 42.0548 38.7921C39.8424 36.9517 41.5239 36.3078 41.5239 36.3078C41.5239 36.3078 41.4355 37.3022 42.4975 37.4777C42.4975 37.4777 42.1905 35.9 43.0961 35.6369C44.002 35.374 46.2145 35.1989 46.2145 37.8281Z" fill="white"/>
</mask>
<g mask="url(#mask21_920_48)">
<path fill-rule="evenodd" clip-rule="evenodd" d="M40.8749 39.4957H46.226V35.4902H40.8749V39.4957Z" fill="#D2403C"/>
</g>
<mask id="mask22_920_48" style="mask-type:alpha" maskUnits="userSpaceOnUse" x="34" y="34" width="6" height="5">
<path d="M39.4885 36.7764C39.4885 36.7764 38.8636 34.2348 37.9368 35.7249C37.0104 37.2148 37.5414 39.5811 35.3289 37.7407C33.1165 35.9 34.798 35.2565 34.798 35.2565C34.798 35.2565 34.7094 36.2505 35.7714 36.426C35.7714 36.426 35.4645 34.8485 36.3701 34.5856C37.2757 34.3227 39.4885 34.1472 39.4885 36.7764Z" fill="white"/>
</mask>
<g mask="url(#mask22_920_48)">
<path fill-rule="evenodd" clip-rule="evenodd" d="M34.1862 38.4273H39.4926V34.4219H34.1862V38.4273Z" fill="#D2403C"/>
</g>
<mask id="mask23_920_48" style="mask-type:alpha" maskUnits="userSpaceOnUse" x="26" y="38" width="4" height="4">
<path d="M28.9507 41.1797C28.9507 41.1797 29.764 39.8557 28.7455 40.0953C27.7265 40.3352 26.9481 41.5472 26.7999 39.8579C26.6516 38.1689 27.6281 38.5969 27.6281 38.5969C27.6281 38.5969 27.1707 38.9763 27.5415 39.4908C27.5415 39.4908 28.0804 38.7023 28.5708 38.9681C29.0617 39.2337 30.0632 40.0783 28.9507 41.1797Z" fill="white"/>
</mask>
<g mask="url(#mask23_920_48)">
<path fill-rule="evenodd" clip-rule="evenodd" d="M26.7845 41.1869H29.46V38.5167H26.7845V41.1869Z" fill="#D2403C"/>
</g>
<mask id="mask24_920_48" style="mask-type:alpha" maskUnits="userSpaceOnUse" x="28" y="43" width="3" height="4">
<path d="M30.367 46.4381C30.367 46.4381 31.1807 45.1141 30.1622 45.3541C29.1432 45.5937 28.3648 46.8057 28.2166 45.1164C28.0683 43.4273 29.0448 43.8553 29.0448 43.8553C29.0448 43.8553 28.587 44.2348 28.9582 44.7492C28.9582 44.7492 29.4971 43.9606 29.9875 44.2266C30.478 44.4921 31.4799 45.3366 30.367 46.4381Z" fill="white"/>
</mask>
<g mask="url(#mask24_920_48)">
<path fill-rule="evenodd" clip-rule="evenodd" d="M28.1667 46.4385H30.8867V43.7682H28.1667V46.4385Z" fill="#D2403C"/>
</g>
<mask id="mask25_920_48" style="mask-type:alpha" maskUnits="userSpaceOnUse" x="29" y="47" width="4" height="4">
<path d="M31.783 50.294C31.783 50.294 32.5964 48.97 31.5779 49.2099C30.5594 49.4495 29.7808 50.6615 29.6326 48.9721C29.484 47.2832 30.4608 47.7112 30.4608 47.7112C30.4608 47.7112 30.0031 48.0909 30.3739 48.6049C30.3739 48.6049 30.9127 47.8169 31.4036 48.0824C31.8942 48.3484 32.8956 49.1928 31.783 50.294Z" fill="white"/>
</mask>
<g mask="url(#mask25_920_48)">
<path fill-rule="evenodd" clip-rule="evenodd" d="M29.5938 50.3103H32.3139V47.64H29.5938V50.3103Z" fill="#D2403C"/>
</g>
<mask id="mask26_920_48" style="mask-type:alpha" maskUnits="userSpaceOnUse" x="23" y="27" width="8" height="9">
<path d="M29.6048 35.9937C29.6048 35.9937 29.9664 35.1384 29.8092 34.7676C29.8092 34.7676 29.2719 36.1524 28.4016 35.5493C27.5317 34.9464 28.0051 33.636 27.6893 33.0785C27.3737 32.5212 26.5448 34.6048 25.8432 32.8999C25.142 31.1953 25.7503 30.962 25.7503 30.962C25.7503 30.962 22.526 32.1773 23.2696 30.0367C24.0131 27.8956 24.8723 27.7328 24.8723 27.7328C24.8723 27.7328 23.7173 29.6135 24.1989 29.9039C24.1989 29.9039 24.7573 27.0633 25.9465 28.6021C27.1352 30.1405 26.4281 31.3188 26.4281 31.3188C26.4281 31.3188 28.1901 30.416 28.1601 33.5363C28.1601 33.5363 29.4667 31.8295 29.9816 33.952C30.4967 36.0741 29.6048 35.9937 29.6048 35.9937Z" fill="white"/>
</mask>
<g mask="url(#mask26_920_48)">
<path fill-rule="evenodd" clip-rule="evenodd" d="M23.1283 36.024H30.1738V27.7015H23.1283V36.024Z" fill="#397490"/>
</g>
<mask id="mask27_920_48" style="mask-type:alpha" maskUnits="userSpaceOnUse" x="19" y="24" width="6" height="4">
<path d="M23.1582 24.4279C23.1582 24.4279 24.4431 24.5948 24.089 26.0847C23.7352 27.5744 24.9742 27.0486 24.9742 27.0486C24.9742 27.0486 22.0538 29.4148 20.1951 26.2598C18.3367 23.105 23.1582 24.4279 23.1582 24.4279Z" fill="white"/>
</mask>
<g mask="url(#mask27_920_48)">
<path fill-rule="evenodd" clip-rule="evenodd" d="M19.739 27.9243H25.0007V24.1414H19.739V27.9243Z" fill="#F1C358"/>
</g>
<mask id="mask28_920_48" style="mask-type:alpha" maskUnits="userSpaceOnUse" x="19" y="22" width="6" height="3">
<path d="M21.7064 24.428C19.6196 24.1368 18.9429 24.8427 19.7098 23.7515C19.7466 23.7656 19.7693 23.806 19.7693 23.806H20.0945C20.0945 23.806 21.5229 23.4882 21.6997 22.5855C21.7157 22.5039 21.702 22.4123 21.6652 22.3432C21.6922 22.3326 21.7205 22.3143 21.7496 22.3047C22.4404 22.3351 23.1809 22.3892 23.9794 22.4827C24.283 22.5914 24.612 22.729 24.9742 22.9152C24.9742 22.9152 24.0734 24.7578 21.7064 24.428Z" fill="white"/>
</mask>
<g mask="url(#mask28_920_48)">
<path fill-rule="evenodd" clip-rule="evenodd" d="M19.3821 24.4975H25.0006V22.2722H19.3821V24.4975Z" fill="#4CA32B"/>
</g>
<mask id="mask29_920_48" style="mask-type:alpha" maskUnits="userSpaceOnUse" x="18" y="22" width="4" height="2">
<path d="M18.632 22.478C18.6271 22.439 18.6302 22.4026 18.6364 22.3674C19.3106 22.2984 20.0619 22.264 20.895 22.2728C20.9359 22.2732 20.9734 22.2721 21.0143 22.2728C21.1064 22.37 20.9879 22.779 20.9879 22.779C20.9898 22.821 21.1715 22.5165 21.6654 22.3266C21.7024 22.3956 21.7162 22.5038 21.7003 22.5854C21.523 23.4882 20.0946 23.8061 20.0946 23.8061H19.7691C19.7691 23.8061 19.597 23.6681 19.561 23.654C19.561 23.6536 19.5614 23.6536 19.5614 23.6533C19.2582 23.5078 18.7163 23.1581 18.632 22.478Z" fill="white"/>
</mask>
<g mask="url(#mask29_920_48)">
<path fill-rule="evenodd" clip-rule="evenodd" d="M18.6245 23.8296H21.7458V22.2719H18.6245V23.8296Z" fill="#D2403C"/>
</g>
<mask id="mask30_920_48" style="mask-type:alpha" maskUnits="userSpaceOnUse" x="15" y="23" width="6" height="3">
<path d="M20.0724 24.428C20.0724 24.428 19.0449 25.7921 17.4518 25.0036C15.8589 24.2148 15.9176 23.5955 15.9176 23.5955C15.9176 23.5955 17.6288 22.8711 18.9858 23.3384C20.3425 23.806 20.0724 24.428 20.0724 24.428Z" fill="white"/>
</mask>
<g mask="url(#mask30_920_48)">
<path fill-rule="evenodd" clip-rule="evenodd" d="M15.9042 25.2538H20.0958V23.1621H15.9042V25.2538Z" fill="#397490"/>
</g>
<mask id="mask31_920_48" style="mask-type:alpha" maskUnits="userSpaceOnUse" x="19" y="23" width="2" height="2">
<path d="M19.5449 23.9068C19.5449 23.6189 19.856 23.3861 20.2395 23.3861C20.6233 23.3861 20.9343 23.6189 20.9343 23.9068C20.9343 24.1945 20.6233 24.4278 20.2395 24.4278C19.856 24.4278 19.5449 24.1945 19.5449 23.9068Z" fill="white"/>
</mask>
<g mask="url(#mask31_920_48)">
<path fill-rule="evenodd" clip-rule="evenodd" d="M19.5162 24.4529H20.9432V23.3848H19.5162V24.4529Z" fill="white"/>
</g>
<path fill-rule="evenodd" clip-rule="evenodd" d="M70.8176 1.83674C70.4111 2.17997 59.3241 12.8434 58.7628 13.4321C58.2015 14.0208 58.0236 15.8505 58.9581 16.628C59.8925 17.4055 61.5953 17.1715 62.1917 16.2636C62.7881 15.3559 67.0852 9.49877 71.6284 2.56201C71.8551 2.21578 71.9235 1.90174 71.7316 1.69764C71.5399 1.49353 71.2241 1.49353 70.8176 1.83674Z" fill="#F1C259"/>
</svg>
