<svg width="60" height="60" viewBox="0 0 60 60" fill="none" xmlns="http://www.w3.org/2000/svg">
<path d="M46 0H14C6.26801 0 0 6.26801 0 14V46C0 53.732 6.26801 60 14 60H46C53.732 60 60 53.732 60 46V14C60 6.26801 53.732 0 46 0Z" fill="#73968B"/>
<path d="M41.414 21.7032C40.414 21.7032 39.664 21.1172 39.164 19.9453C38.7266 18.9453 38.3204 18.3359 37.9454 18.1172C37.6172 17.9453 36.8046 17.8594 35.5078 17.8594C33.2422 17.8594 30.7266 19.5938 27.961 23.0624C24.211 27.7188 22.336 32.1328 22.336 36.3046C22.336 38.3204 22.9844 40.0546 24.2812 41.5078C25.6094 43.0078 27.211 43.7578 29.086 43.7578C30.6954 43.7578 32.3124 43.3438 33.9376 42.5156C34.8438 42.0468 36.2344 41.125 38.1094 39.75C39 39.0938 39.6718 38.7656 40.125 38.7656C40.7968 38.7656 41.3594 39.0234 41.8124 39.539C42.2656 40.039 42.4922 40.6016 42.4922 41.2266C42.4922 41.9296 42.1954 42.5468 41.6016 43.0782C37.4766 46.7344 33.3046 48.5624 29.086 48.5624C25.8516 48.5624 23.1172 47.3204 20.8828 44.836C18.7266 42.4296 17.6484 39.586 17.6484 36.3046C17.6484 31.0078 19.8672 25.5782 24.3046 20.0156C28.0078 15.375 31.7422 13.0547 35.5078 13.0547C36.2734 13.0547 36.961 13.0938 37.5704 13.1719C38.1796 13.2344 38.7188 13.3437 39.1876 13.5C39.7344 12.7031 40.4454 12.3047 41.3204 12.3047C42.3984 12.3047 43.0782 13.0156 43.3594 14.4375C43.6094 15.7031 43.7344 17.2578 43.7344 19.1016C43.7344 19.7422 43.5624 20.3046 43.2188 20.789C42.7968 21.3984 42.1954 21.7032 41.414 21.7032Z" fill="#FFF9F4"/>
</svg>
