<svg width="60" height="60" viewBox="0 0 60 60" fill="none" xmlns="http://www.w3.org/2000/svg">
<path d="M0 15C0 6.71573 6.71573 0 15 0H45C53.2843 0 60 6.71573 60 15V45C60 53.2843 53.2843 60 45 60H15C6.71573 60 0 53.2843 0 45V15Z" fill="#252422"/>
<path d="M27.2781 9.36416H17.6879V15.6069H28.7861C28.7867 15.6069 35.2023 15.6073 35.2023 23.9306C35.2023 32.2542 28.7863 32.2543 28.7861 32.2543C28.7861 32.2543 28.7861 32.2543 28.7861 32.2543H17.6879V38.6705H26.555C28.9665 38.6705 31.4238 38.6697 33.6667 37.7839C37.1984 36.389 42.1387 32.8448 42.1387 23.9306C42.1387 14.4382 36.5367 11.1162 32.9989 9.9647C31.1633 9.36724 29.2084 9.36416 27.2781 9.36416Z" fill="#F1F1EC"/>
<path d="M17.6879 50.289V43.6994H42.1387V50.289H17.6879Z" fill="#F1F1EC"/>
</svg>
