<svg width="66" height="66" viewBox="0 0 66 66" fill="none" xmlns="http://www.w3.org/2000/svg">
<g filter="url(#filter0_d_28_8)">
<path d="M51 3H15C8.37258 3 3 8.37258 3 15V51C3 57.6274 8.37258 63 15 63H51C57.6274 63 63 57.6274 63 51V15C63 8.37258 57.6274 3 51 3Z" fill="white"/>
<path d="M25 57C29.416 57 33 53.416 33 49V41H25C20.584 41 17 44.584 17 49C17 53.416 20.584 57 25 57Z" fill="#0ACF83"/>
<path d="M17 33C17 28.584 20.584 25 25 25H33V41H25C20.584 41 17 37.416 17 33Z" fill="#A259FF"/>
<path d="M17 17C17 12.584 20.584 9 25 9H33V25H25C20.584 25 17 21.416 17 17Z" fill="#F24E1E"/>
<path d="M33 9H41C45.416 9 49 12.584 49 17C49 21.416 45.416 25 41 25H33V9Z" fill="#FF7262"/>
<path d="M49 33C49 37.416 45.416 41 41 41C36.584 41 33 37.416 33 33C33 28.584 36.584 25 41 25C45.416 25 49 28.584 49 33Z" fill="#1ABCFE"/>
</g>
<defs>
<filter id="filter0_d_28_8" x="0" y="0" width="66" height="66" filterUnits="userSpaceOnUse" color-interpolation-filters="sRGB">
<feFlood flood-opacity="0" result="BackgroundImageFix"/>
<feColorMatrix in="SourceAlpha" type="matrix" values="0 0 0 0 0 0 0 0 0 0 0 0 0 0 0 0 0 0 127 0" result="hardAlpha"/>
<feOffset/>
<feGaussianBlur stdDeviation="1.5"/>
<feColorMatrix type="matrix" values="0 0 0 0 0.192157 0 0 0 0 0.196078 0 0 0 0 0.192157 0 0 0 0.4 0"/>
<feBlend mode="normal" in2="BackgroundImageFix" result="effect1_dropShadow_28_8"/>
<feBlend mode="normal" in="SourceGraphic" in2="effect1_dropShadow_28_8" result="shape"/>
</filter>
</defs>
</svg>
