<svg width="66" height="66" viewBox="0 0 66 66" fill="none" xmlns="http://www.w3.org/2000/svg">
<g filter="url(#filter0_d_620_117)">
<path d="M51 3H15C8.37258 3 3 8.37258 3 15V51C3 57.6274 8.37258 63 15 63H51C57.6274 63 63 57.6274 63 51V15C63 8.37258 57.6274 3 51 3Z" fill="white"/>
<g clip-path="url(#clip0_620_117)">
<path d="M15.3479 43.6156L16.9651 44.5493L34.982 13.3441L33.3647 12.4103L15.3479 43.6156Z" fill="#E535AB"/>
<path d="M51.0113 41.1226H14.9775V42.99H51.0113V41.1226Z" fill="#E535AB"/>
<path d="M15.6905 42.1716L33.7141 52.5779L34.6479 50.9606L16.6243 40.5544L15.6905 42.1716Z" fill="#E535AB"/>
<path d="M31.3477 15.0503L49.3713 25.4565L50.305 23.8393L32.2814 13.433L31.3477 15.0503Z" fill="#E535AB"/>
<path d="M15.6955 23.8322L16.6293 25.4495L34.6529 15.0432L33.7191 13.426L15.6955 23.8322Z" fill="#E535AB"/>
<path d="M31.0221 13.3443L49.039 44.5496L50.6562 43.6158L32.6393 12.4106L31.0221 13.3443Z" fill="#E535AB"/>
<path d="M18.2738 22.5938H16.4063V43.4063H18.2738V22.5938Z" fill="#E535AB"/>
<path d="M49.5938 22.5938H47.7263V43.4063H49.5938V22.5938Z" fill="#E535AB"/>
<path d="M32.5806 50.3748L33.3962 51.7875L49.0719 42.7369L48.2563 41.3242L32.5806 50.3748Z" fill="#E535AB"/>
<path d="M52.0688 44.0138C50.9888 45.8925 48.5813 46.5338 46.7025 45.4538C44.8238 44.3738 44.1825 41.9663 45.2625 40.0875C46.3425 38.2088 48.75 37.5675 50.6288 38.6475C52.5188 39.7388 53.16 42.135 52.0688 44.0138Z" fill="#E535AB"/>
<path d="M20.7263 25.9125C19.6463 27.7912 17.2388 28.4325 15.36 27.3525C13.4813 26.2725 12.84 23.865 13.92 21.9862C15 20.1075 17.4075 19.4662 19.2863 20.5462C21.165 21.6375 21.8063 24.0337 20.7263 25.9125Z" fill="#E535AB"/>
<path d="M13.9313 44.0138C12.8513 42.135 13.4925 39.7388 15.3713 38.6475C17.25 37.5675 19.6463 38.2088 20.7375 40.0875C21.8175 41.9663 21.1763 44.3625 19.2975 45.4538C17.4075 46.5338 15.0113 45.8925 13.9313 44.0138Z" fill="#E535AB"/>
<path d="M45.2738 25.9125C44.1938 24.0337 44.835 21.6375 46.7138 20.5462C48.5925 19.4662 50.9888 20.1075 52.08 21.9862C53.16 23.865 52.5188 26.2612 50.64 27.3525C48.7613 28.4325 46.3538 27.7912 45.2738 25.9125Z" fill="#E535AB"/>
<path d="M33 55.0276C30.8287 55.0276 29.0737 53.2726 29.0737 51.1013C29.0737 48.9301 30.8287 47.175 33 47.175C35.1713 47.175 36.9263 48.9301 36.9263 51.1013C36.9263 53.2613 35.1713 55.0276 33 55.0276Z" fill="#E535AB"/>
<path d="M33 18.825C30.8287 18.825 29.0737 17.07 29.0737 14.8988C29.0737 12.7275 30.8287 10.9725 33 10.9725C35.1713 10.9725 36.9263 12.7275 36.9263 14.8988C36.9263 17.07 35.1713 18.825 33 18.825Z" fill="#E535AB"/>
</g>
</g>
<defs>
<filter id="filter0_d_620_117" x="0" y="0" width="66" height="66" filterUnits="userSpaceOnUse" color-interpolation-filters="sRGB">
<feFlood flood-opacity="0" result="BackgroundImageFix"/>
<feColorMatrix in="SourceAlpha" type="matrix" values="0 0 0 0 0 0 0 0 0 0 0 0 0 0 0 0 0 0 127 0" result="hardAlpha"/>
<feOffset/>
<feGaussianBlur stdDeviation="1.5"/>
<feColorMatrix type="matrix" values="0 0 0 0 0.192157 0 0 0 0 0.196078 0 0 0 0 0.192157 0 0 0 0.4 0"/>
<feBlend mode="normal" in2="BackgroundImageFix" result="effect1_dropShadow_620_117"/>
<feBlend mode="normal" in="SourceGraphic" in2="effect1_dropShadow_620_117" result="shape"/>
</filter>
<clipPath id="clip0_620_117">
<rect width="45" height="45" fill="white" transform="translate(10.5 10.5)"/>
</clipPath>
</defs>
</svg>
