<svg width="50" height="50" viewBox="0 0 50 50" fill="none" xmlns="http://www.w3.org/2000/svg">
<path d="M0 11C0 4.92487 4.92487 0 11 0H39C45.0751 0 50 4.92487 50 11V39C50 45.0751 45.0751 50 39 50H11C4.92487 50 0 45.0751 0 39V11Z" fill="#252422"/>
<path d="M46 25C46 36.598 36.598 46 25 46C13.402 46 4 36.598 4 25C4 13.402 13.402 4 25 4C36.598 4 46 13.402 46 25Z" fill="#2A2927"/>
<path d="M17.4631 33V18.024H13.6471V16.2H23.3671V18.024H19.5511V33H17.4631Z" fill="#34D399"/>
<path d="M29.848 16.2V31.176H35.2V33H27.76V16.2H29.848Z" fill="#34D399"/>
</svg>
