<svg width="66" height="66" viewBox="0 0 66 66" fill="none" xmlns="http://www.w3.org/2000/svg">
<g filter="url(#filter0_d_620_22)">
<path d="M51 3H15C8.37258 3 3 8.37258 3 15V51C3 57.6274 8.37258 63 15 63H51C57.6274 63 63 57.6274 63 51V15C63 8.37258 57.6274 3 51 3Z" fill="white"/>
<g clip-path="url(#clip0_620_22)">
<path d="M19.1629 25.5396H29.0438V26.3224H20.0686V32.2143H28.5086V32.9971H20.0686V39.4658H29.1467V40.2487H19.1629V25.5396ZM29.9289 25.5396H30.9788L35.631 32.0083L40.3862 25.5396L46.854 17.3229L36.228 32.6881L41.7037 40.2487H40.6127L35.631 33.3679L30.6288 40.2487H29.5584L35.0752 32.6881L29.9289 25.5396ZM42.0948 26.3224V25.5396H53.3549V26.3224H48.1674V40.2487H47.2617V26.3224H42.0948Z" fill="black"/>
<path d="M6.80147 25.5396H7.93365L23.5458 48.827L17.0941 40.2486L7.74839 26.652L7.70722 40.2486H6.80147V25.5396Z" fill="black"/>
<path d="M53.2636 39.2296C53.4509 39.2296 53.5875 39.0867 53.5875 38.902C53.5875 38.7173 53.4509 38.5743 53.2636 38.5743C53.0786 38.5743 52.9398 38.7173 52.9398 38.902C52.9398 39.0867 53.0786 39.2296 53.2636 39.2296ZM54.1536 38.3677C54.1536 38.913 54.548 39.2692 55.123 39.2692C55.7354 39.2692 56.1055 38.902 56.1055 38.2643V36.0193H55.612V38.2621C55.612 38.6161 55.4336 38.8052 55.1186 38.8052C54.8366 38.8052 54.6449 38.6293 54.6383 38.3677H54.1536ZM56.751 38.3391C56.7862 38.9064 57.2599 39.2692 57.9648 39.2692C58.7182 39.2692 59.1897 38.8888 59.1897 38.2819C59.1897 37.8048 58.9209 37.5409 58.2688 37.3892L57.9185 37.3034C57.5044 37.2067 57.337 37.077 57.337 36.8505C57.337 36.5646 57.5969 36.3777 57.9868 36.3777C58.3569 36.3777 58.6125 36.5602 58.6588 36.8527H59.139C59.1104 36.3184 58.6389 35.9424 57.9935 35.9424C57.2995 35.9424 56.8369 36.3184 56.8369 36.8835C56.8369 37.3496 57.099 37.6267 57.674 37.7608L58.0838 37.8597C58.5045 37.9587 58.6896 38.1038 58.6896 38.3457C58.6896 38.6271 58.3988 38.8316 58.0023 38.8316C57.5771 38.8316 57.2819 38.6403 57.24 38.3391H56.751Z" fill="black"/>
</g>
</g>
<defs>
<filter id="filter0_d_620_22" x="0" y="0" width="66" height="66" filterUnits="userSpaceOnUse" color-interpolation-filters="sRGB">
<feFlood flood-opacity="0" result="BackgroundImageFix"/>
<feColorMatrix in="SourceAlpha" type="matrix" values="0 0 0 0 0 0 0 0 0 0 0 0 0 0 0 0 0 0 127 0" result="hardAlpha"/>
<feOffset/>
<feGaussianBlur stdDeviation="1.5"/>
<feColorMatrix type="matrix" values="0 0 0 0 0.192157 0 0 0 0 0.196078 0 0 0 0 0.192157 0 0 0 0.4 0"/>
<feBlend mode="normal" in2="BackgroundImageFix" result="effect1_dropShadow_620_22"/>
<feBlend mode="normal" in="SourceGraphic" in2="effect1_dropShadow_620_22" result="shape"/>
</filter>
<clipPath id="clip0_620_22">
<rect width="52.5" height="31.5" fill="white" transform="translate(6.75 17.25)"/>
</clipPath>
</defs>
</svg>
