<svg width="66" height="66" viewBox="0 0 66 66" fill="none" xmlns="http://www.w3.org/2000/svg">
<g filter="url(#filter0_d_117_36)">
<path d="M51 3H15C8.37258 3 3 8.37258 3 15V51C3 57.6274 8.37258 63 15 63H51C57.6274 63 63 57.6274 63 51V15C63 8.37258 57.6274 3 51 3Z" fill="#FEFEFE"/>
<g clip-path="url(#clip0_117_36)">
<path d="M31.0189 9.60948C32.2152 8.93118 33.7734 8.92812 34.9687 9.60948C40.9822 12.9753 46.9975 16.3358 53.01 19.7036C54.1408 20.3346 54.8972 21.5812 54.8857 22.872V43.1218C54.8942 44.466 54.063 45.7424 52.8699 46.3591C46.8762 49.7063 40.8856 53.0577 34.893 56.4049C33.6719 57.0965 32.0824 57.0432 30.8995 56.2949C29.1026 55.2631 27.3026 54.2364 25.5055 53.2056C25.1383 52.9887 24.7243 52.8161 24.465 52.4634C24.6942 52.1574 25.1041 52.1193 25.4371 51.9857C26.1872 51.7494 26.8761 51.3702 27.5651 51.0022C27.7394 50.884 27.9521 50.9293 28.1191 51.035C29.6557 51.9077 31.1787 52.8057 32.7204 53.6701C33.0493 53.8582 33.3823 53.6085 33.6635 53.4532C39.5451 50.1605 45.434 46.8801 51.3146 43.5863C51.5325 43.4825 51.653 43.2534 51.6353 43.017C51.6394 36.337 51.6363 29.6558 51.6373 22.9758C51.6622 22.7075 51.5055 22.4609 51.2607 22.3511C45.2878 19.0192 39.3179 15.6822 33.3461 12.3494C33.2426 12.2789 33.12 12.2411 32.9945 12.241C32.8689 12.2408 32.7463 12.2782 32.6426 12.3484C26.6707 15.6822 20.7019 19.0223 14.7301 22.354C14.4861 22.464 14.3223 22.7065 14.3513 22.9758C14.3524 29.6558 14.3513 36.337 14.3513 43.018C14.341 43.1334 14.3666 43.2491 14.4246 43.3496C14.4827 43.4501 14.5705 43.5306 14.6761 43.5802C16.2697 44.4754 17.8654 45.3642 19.4601 46.2563C20.3584 46.7353 21.4615 47.0199 22.4512 46.6529C23.3247 46.3426 23.937 45.4597 23.9203 44.5411C23.9285 37.9 23.9162 31.258 23.9265 24.618C23.9046 24.3232 24.187 24.0796 24.4763 24.1074C25.2421 24.1023 26.0088 24.0971 26.7745 24.1094C27.0941 24.1023 27.3141 24.4197 27.2745 24.7167C27.2715 31.3998 27.2828 38.083 27.2694 44.7661C27.2715 46.5472 26.5327 48.4852 24.8695 49.3567C22.8205 50.4081 20.288 50.1851 18.2637 49.177C16.5113 48.3106 14.839 47.2881 13.1177 46.36C11.9216 45.7467 11.0945 44.4651 11.1029 43.122V22.872C11.0904 21.5545 11.8769 20.2852 13.043 19.6634C19.0356 16.3135 25.0273 12.961 31.0189 9.60948Z" fill="#8CC84B"/>
<path d="M36.2479 23.6366C38.8616 23.4699 41.6596 23.5378 44.0116 24.8133C45.8325 25.7906 46.8421 27.8419 46.8742 29.8458C46.8234 30.1161 46.5381 30.2652 46.2776 30.2466C45.5193 30.2456 44.7608 30.2569 44.0025 30.2415C43.6808 30.2538 43.4938 29.96 43.4534 29.6783C43.2356 28.7195 42.7077 27.7699 41.7966 27.3074C40.398 26.6138 38.7763 26.6487 37.2513 26.6631C36.1379 26.7217 34.9407 26.8172 33.9975 27.4657C33.2734 27.9569 33.0534 28.9486 33.3119 29.7472C33.5555 30.3207 34.2238 30.5057 34.7706 30.6763C37.9204 31.4923 41.2582 31.4111 44.3479 32.485C45.627 32.9227 46.8784 33.7738 47.3162 35.1005C47.8889 36.8785 47.6379 39.0038 46.3608 40.4312C45.3251 41.6059 43.8167 42.2452 42.3123 42.5924C40.3109 43.0345 38.2338 43.0457 36.2013 42.8494C34.2902 42.6336 32.3013 42.1363 30.8259 40.8464C29.5643 39.7613 28.948 38.0705 29.0092 36.4387C29.0238 36.1631 29.3008 35.9709 29.5673 35.9936C30.331 35.9874 31.0946 35.9854 31.8583 35.9946C32.1633 35.973 32.3894 36.2341 32.4051 36.5189C32.546 37.4324 32.8926 38.3912 33.6968 38.9328C35.2488 39.9247 37.1963 39.8567 38.9734 39.8845C40.4458 39.8198 42.0985 39.8002 43.3 38.8363C43.9339 38.2865 44.1217 37.3667 43.9504 36.5754C43.7648 35.9073 43.0592 35.596 42.4533 35.3924C39.3439 34.4181 35.9688 34.7716 32.8895 33.6698C31.6394 33.2322 30.4305 32.4048 29.9502 31.1326C29.28 29.3321 29.5871 27.105 30.9981 25.7258C32.3738 24.3538 34.3597 23.8255 36.2479 23.6364V23.6366Z" fill="#8CC84B"/>
</g>
</g>
<defs>
<filter id="filter0_d_117_36" x="0" y="0" width="66" height="66" filterUnits="userSpaceOnUse" color-interpolation-filters="sRGB">
<feFlood flood-opacity="0" result="BackgroundImageFix"/>
<feColorMatrix in="SourceAlpha" type="matrix" values="0 0 0 0 0 0 0 0 0 0 0 0 0 0 0 0 0 0 127 0" result="hardAlpha"/>
<feOffset/>
<feGaussianBlur stdDeviation="1.5"/>
<feColorMatrix type="matrix" values="0 0 0 0 0.192157 0 0 0 0 0.196078 0 0 0 0 0.192157 0 0 0 0.4 0"/>
<feBlend mode="normal" in2="BackgroundImageFix" result="effect1_dropShadow_117_36"/>
<feBlend mode="normal" in="SourceGraphic" in2="effect1_dropShadow_117_36" result="shape"/>
</filter>
<clipPath id="clip0_117_36">
<rect width="44" height="48" fill="white" transform="translate(11 9)"/>
</clipPath>
</defs>
</svg>
