<svg width="60" height="60" viewBox="0 0 60 60" fill="none" xmlns="http://www.w3.org/2000/svg">
<path fill-rule="evenodd" clip-rule="evenodd" d="M41.5375 0.001953L11.5125 30.0004L0 18.4857L18.4829 0.00297296H41.5365" fill="#14AB7E"/>
<path fill-rule="evenodd" clip-rule="evenodd" d="M60 41.55L30.0098 11.5157L41.5202 0L60 18.4858V41.5489" fill="#14AB7E"/>
<path fill-rule="evenodd" clip-rule="evenodd" d="M18.4634 59.9989L48.4905 30.0004L59.9999 41.5131L41.5202 60H18.4624" fill="#14AB7E"/>
<path fill-rule="evenodd" clip-rule="evenodd" d="M0.000976562 18.4511L29.9912 48.4854L18.4828 59.9991L0.000976562 41.5132V18.4511Z" fill="#14AB7E"/>
<path fill-rule="evenodd" clip-rule="evenodd" d="M30.0096 11.5145L41.5201 0.00293302L42.4537 0.936582L30.9443 12.4502L30.0098 11.5157L30.0096 11.5145ZM17.5656 59.0642L29.076 47.5505L30.0096 48.4852L18.5002 59.9989L17.5656 59.0642ZM0.935611 17.552L12.4461 29.0657L11.5114 30.0004L0 18.4857L0.935611 17.552ZM48.4905 30.0004L59.9999 41.5131L59.0662 42.4477L47.5558 30.934L48.4905 30.0004Z" fill="#169064"/>
</svg>
