<svg width="66" height="66" viewBox="0 0 66 66" fill="none" xmlns="http://www.w3.org/2000/svg">
<g filter="url(#filter0_d_620_34)">
<path d="M51 3H15C8.37258 3 3 8.37258 3 15V51C3 57.6274 8.37258 63 15 63H51C57.6274 63 63 57.6274 63 51V15C63 8.37258 57.6274 3 51 3Z" fill="white"/>
<path d="M43.969 43.5921C44.2575 41.2146 44.171 40.8667 45.974 41.252L46.4326 41.2922C47.8202 41.3526 49.6318 41.0737 50.6992 40.5879C52.9926 39.5415 54.3513 37.7964 52.0897 38.2535C46.9317 39.3 46.5769 37.5837 46.5769 37.5837C52.0233 29.6435 54.3023 19.5673 52.3349 17.1007C46.975 10.3707 37.6947 13.5532 37.5389 13.6365L37.4898 13.6451C36.4715 13.4353 35.3291 13.3117 34.0483 13.2915C31.7145 13.2542 29.9404 13.8924 28.599 14.8957C28.599 14.8957 12.0433 8.1945 12.8135 23.3189C12.9751 26.5387 17.507 47.6657 22.9131 41.2836C24.8892 38.9492 26.796 36.9771 26.796 36.9771C27.7451 37.5952 28.8788 37.9114 30.0702 37.7993L30.1625 37.7217C30.1337 38.0121 30.1452 38.2938 30.2 38.6301C28.8067 40.1567 29.2163 40.4269 26.4325 40.9875C23.617 41.5596 25.27 42.5744 26.3517 42.8389C27.6614 43.1608 30.6904 43.6179 32.7386 40.8006L32.655 41.1226C33.2031 41.551 33.1656 44.2073 33.2435 46.1047C33.3213 48.002 33.4483 49.7729 33.8435 50.8165C34.2358 51.86 34.7032 54.5509 38.361 53.7804C41.4189 53.1364 43.7556 52.2108 43.969 43.5921Z" fill="black" stroke="black" stroke-width="5.07183"/>
<path d="M52.0896 38.2534C46.9317 39.2998 46.5768 37.5836 46.5768 37.5836C52.0233 29.6433 54.3023 19.5642 52.3348 17.0976C46.9749 10.3706 37.6946 13.553 37.5389 13.6364L37.4898 13.645C36.4715 13.4351 35.3291 13.3115 34.0483 13.2914C31.7116 13.254 29.9404 13.8922 28.599 14.8927C28.599 14.8927 12.0433 8.19435 12.8135 23.3187C12.9751 26.5385 17.507 47.6655 22.9131 41.2835C24.8892 38.9491 26.796 36.977 26.796 36.977C27.7451 37.5951 28.8788 37.9113 30.0702 37.7992L30.1625 37.7216C30.1337 38.0119 30.1452 38.2937 30.2 38.63C28.8067 40.1565 29.2163 40.4268 26.4325 40.9874C23.617 41.5594 25.2699 42.5743 26.3517 42.8387C27.6614 43.1607 30.6904 43.6178 32.7357 40.8005L32.6549 41.1225C33.2002 41.5508 33.5838 43.9139 33.5204 46.0557C33.4569 48.1974 33.4136 49.6693 33.8435 50.8163C34.2733 51.9663 34.7002 54.5507 38.361 53.7803C41.4189 53.1363 43.0026 51.4689 43.2219 48.6861C43.3776 46.7082 43.7325 47.0015 43.7555 45.2335L44.0382 44.3969C44.3671 41.7147 44.0902 40.8494 45.9739 41.2518L46.4326 41.2921C47.8202 41.3525 49.6347 41.0736 50.6992 40.5849C52.9926 39.5413 54.3513 37.7963 52.0896 38.2534Z" fill="#336791"/>
<path d="M32.9579 39.7915C32.8165 44.7793 32.9954 49.8016 33.4916 51.0234C33.9878 52.2452 35.0522 54.6198 38.713 53.8493C41.768 53.2054 42.8815 51.9606 43.3633 49.2094C43.721 47.1855 44.4047 41.5681 44.4941 40.4153" stroke="white" stroke-width="1.69061" stroke-linecap="round" stroke-linejoin="round"/>
<path d="M28.5731 14.7835C28.5731 14.7835 12.0058 8.13121 12.776 23.2556C12.9405 26.4754 17.4725 47.6024 22.8756 41.2203C24.8517 38.886 26.6374 37.0576 26.6374 37.0576" stroke="white" stroke-width="1.69061" stroke-linecap="round" stroke-linejoin="round"/>
<path d="M37.5216 13.5675C36.9476 13.7457 46.7356 10.0545 52.3003 17.0374C54.2648 19.504 51.9888 29.5802 46.5394 37.5204" stroke="white" stroke-width="1.69061" stroke-linecap="round" stroke-linejoin="round"/>
<path d="M46.5394 37.5204C46.5394 37.5204 46.8942 39.2367 52.0551 38.1903C54.3167 37.7332 52.9551 39.4782 50.6617 40.5246C48.7809 41.3813 44.5633 41.6027 44.4941 40.4154C44.3152 37.3594 46.7125 38.288 46.5394 37.5204ZM46.5394 37.5204C46.3836 36.8305 45.3105 36.1549 44.6037 34.4645C43.9835 32.9897 36.111 21.686 46.7846 23.3648C47.1769 23.2844 44.0008 13.3893 34.0108 13.2283C24.0209 13.0673 24.3497 25.2938 24.3497 25.2938" stroke="white" stroke-width="1.69061" stroke-linecap="round" stroke-linejoin="bevel"/>
<path d="M30.1626 38.5668C28.7692 40.0933 29.1789 40.3635 26.3951 40.927C23.5795 41.4962 25.2354 42.511 26.3143 42.7755C27.624 43.0975 30.653 43.5546 32.7012 40.7372C33.3243 39.8805 32.6954 38.5121 31.8415 38.1643C31.4261 37.9947 30.8722 37.7848 30.1626 38.5668Z" stroke="white" stroke-width="1.69061" stroke-linecap="round" stroke-linejoin="round"/>
<path d="M30.0703 38.541C29.9318 37.6412 30.3703 36.5718 30.8434 35.3213C31.553 33.4469 33.1916 31.5696 31.8819 25.6159C30.904 21.1801 24.3526 24.6931 24.3498 25.2939C24.3469 25.8947 24.6469 28.3441 24.2401 31.193C23.7093 34.913 26.6489 38.0581 30.0328 37.7361" stroke="white" stroke-width="1.69061" stroke-linecap="round" stroke-linejoin="round"/>
<path d="M28.5125 25.2047C28.4836 25.4088 28.8961 25.9579 29.4327 26.0298C29.9693 26.1045 30.428 25.6762 30.4597 25.4721C30.4885 25.2651 30.076 25.038 29.5366 24.9661C29 24.8913 28.5413 25.0006 28.5125 25.2047Z" fill="white" stroke="white" stroke-width="0.563532"/>
<path d="M44.8634 24.785C44.8922 24.992 44.4826 25.5382 43.9431 25.6129C43.4065 25.6848 42.9479 25.2564 42.9161 25.0523C42.8902 24.8482 43.2998 24.6211 43.8393 24.5464C44.3758 24.4745 44.8345 24.5809 44.8634 24.785Z" fill="white" stroke="white" stroke-width="0.281766"/>
<path d="M46.7846 23.3647C46.874 24.9746 46.4327 26.0728 46.3779 27.7891C46.2942 30.2815 47.5866 33.1362 45.6394 35.9938" stroke="white" stroke-width="1.69061" stroke-linecap="round" stroke-linejoin="round"/>
</g>
<defs>
<filter id="filter0_d_620_34" x="0" y="0" width="66" height="66" filterUnits="userSpaceOnUse" color-interpolation-filters="sRGB">
<feFlood flood-opacity="0" result="BackgroundImageFix"/>
<feColorMatrix in="SourceAlpha" type="matrix" values="0 0 0 0 0 0 0 0 0 0 0 0 0 0 0 0 0 0 127 0" result="hardAlpha"/>
<feOffset/>
<feGaussianBlur stdDeviation="1.5"/>
<feColorMatrix type="matrix" values="0 0 0 0 0.192157 0 0 0 0 0.196078 0 0 0 0 0.192157 0 0 0 0.4 0"/>
<feBlend mode="normal" in2="BackgroundImageFix" result="effect1_dropShadow_620_34"/>
<feBlend mode="normal" in="SourceGraphic" in2="effect1_dropShadow_620_34" result="shape"/>
</filter>
</defs>
</svg>
