<svg width="66" height="66" viewBox="0 0 66 66" fill="none" xmlns="http://www.w3.org/2000/svg">
<g filter="url(#filter0_d_922_247)">
<mask id="mask0_922_247" style="mask-type:alpha" maskUnits="userSpaceOnUse" x="3" y="3" width="60" height="60">
<path d="M51 3H15C8.37258 3 3 8.37258 3 15V51C3 57.6274 8.37258 63 15 63H51C57.6274 63 63 57.6274 63 51V15C63 8.37258 57.6274 3 51 3Z" fill="white"/>
</mask>
<g mask="url(#mask0_922_247)">
<path d="M57.1406 3H8.85938C5.62333 3 3 5.62333 3 8.85938V57.1406C3 60.3767 5.62333 63 8.85938 63H57.1406C60.3767 63 63 60.3767 63 57.1406V8.85938C63 5.62333 60.3767 3 57.1406 3Z" fill="white"/>
<path d="M32.7058 8.00043C30.6686 8.00977 28.7235 8.18373 27.0122 8.48715C21.97 9.37912 21.0545 11.2454 21.0545 14.6879V19.2342H32.9697V20.7495H16.5825C13.1198 20.7495 10.0872 22.8333 9.13883 26.7973C8.04473 31.3408 7.99628 34.1761 9.13883 38.9203C9.98588 42.4518 12.0088 44.9681 15.4715 44.9681H19.5684V39.5182C19.5684 35.581 22.9712 32.1082 27.0122 32.1082H38.9136C42.2266 32.1082 44.8712 29.3776 44.8712 26.0467V14.6875C44.8712 11.455 42.147 9.02632 38.9136 8.4867C36.8663 8.14591 34.7429 7.99065 32.7058 8.00043ZM26.262 11.6565C27.493 11.6565 28.4978 12.6793 28.4978 13.9365C28.4978 15.1893 27.4925 16.2028 26.262 16.2028C25.027 16.2028 24.0262 15.1897 24.0262 13.9365C24.0262 12.6793 25.027 11.6565 26.262 11.6565Z" fill="url(#paint0_linear_922_247)"/>
<path d="M46.3573 20.749V26.0458C46.3573 30.1525 42.8795 33.6088 38.9136 33.6088H27.0122C23.7521 33.6088 21.0545 36.4018 21.0545 39.6704V51.0288C21.0545 54.2617 23.8622 56.1632 27.0122 57.0903C30.7838 58.2008 34.4007 58.4014 38.9136 57.0903C41.9133 56.221 44.8712 54.4708 44.8712 51.0288V46.4829H32.9698V44.9676H50.8289C54.2921 44.9676 55.5821 42.5493 56.7865 38.9199C58.0308 35.1837 57.9779 31.59 56.7865 26.7968C55.9306 23.3458 54.2961 20.749 50.8289 20.749H46.3573ZM39.6633 49.5135C40.8983 49.5135 41.8991 50.5265 41.8991 51.7798C41.8991 53.037 40.8983 54.0597 39.6633 54.0597C38.4323 54.0597 37.4276 53.037 37.4276 51.7798C37.4276 50.527 38.4328 49.5135 39.6633 49.5135Z" fill="url(#paint1_linear_922_247)"/>
</g>
</g>
<defs>
<filter id="filter0_d_922_247" x="0" y="0" width="66" height="66" filterUnits="userSpaceOnUse" color-interpolation-filters="sRGB">
<feFlood flood-opacity="0" result="BackgroundImageFix"/>
<feColorMatrix in="SourceAlpha" type="matrix" values="0 0 0 0 0 0 0 0 0 0 0 0 0 0 0 0 0 0 127 0" result="hardAlpha"/>
<feOffset/>
<feGaussianBlur stdDeviation="1.5"/>
<feColorMatrix type="matrix" values="0 0 0 0 0.192157 0 0 0 0 0.196078 0 0 0 0 0.192157 0 0 0 0.4 0"/>
<feBlend mode="normal" in2="BackgroundImageFix" result="effect1_dropShadow_922_247"/>
<feBlend mode="normal" in="SourceGraphic" in2="effect1_dropShadow_922_247" result="shape"/>
</filter>
<linearGradient id="paint0_linear_922_247" x1="7.12482" y1="9.42007" x2="34.6265" y2="32.8267" gradientUnits="userSpaceOnUse">
<stop stop-color="#5A9FD4"/>
<stop offset="1" stop-color="#306998"/>
</linearGradient>
<linearGradient id="paint1_linear_922_247" x1="44.9113" y1="47.4665" x2="35.039" y2="33.649" gradientUnits="userSpaceOnUse">
<stop stop-color="#FFD43B"/>
<stop offset="1" stop-color="#FFE873"/>
</linearGradient>
</defs>
</svg>
