<svg width="60" height="13" viewBox="0 0 60 13" fill="none" xmlns="http://www.w3.org/2000/svg">
<path d="M9.25515 12.3225C11.1002 8.49655 12.8828 4.64171 14.7353 0.818176C15.0924 0.996232 15.4469 1.17671 15.8039 1.35717C13.9464 5.16628 12.1638 9.00906 10.3062 12.8182C9.95672 12.6545 9.60635 12.4893 9.25515 12.3225Z" fill="white"/>
<path d="M35.8347 0.827776H39.3975C39.395 4.25428 39.3942 7.6816 39.395 11.1097C40.1765 11.1097 40.9555 11.1121 41.7342 11.1121C41.7342 11.4418 41.7343 11.7738 41.7368 12.1059H35.7447C35.7422 11.7738 35.7422 11.4418 35.7447 11.1121H38.0993C38.0968 8.01607 38.0968 4.9192 38.0993 1.82154H35.8347V0.827776Z" fill="white"/>
<path d="M46.2808 2.27637C46.8175 2.19455 47.3543 2.10791 47.8888 2.01167C47.5565 2.74317 47.534 3.54928 47.4318 4.3289H50.0858C50.0858 4.66578 50.0883 5.00025 50.0883 5.33711C49.1795 5.33711 48.2733 5.33954 47.3643 5.33711C47.2995 6.70869 47.1398 8.07784 47.1845 9.45182C47.227 10.0606 47.307 10.8763 48.006 11.1169C48.9023 11.4153 49.781 10.9052 50.4928 10.4336L50.8898 11.4153C49.801 12.1324 48.3455 12.515 47.0923 11.9904C46.2908 11.6247 46.036 10.7151 45.9463 9.93546C45.794 8.4051 46.0285 6.8699 46.081 5.33711H44.3235C44.3235 5.00025 44.3235 4.66578 44.326 4.3289H46.1535C46.1935 3.64552 46.2358 2.96135 46.2808 2.27637Z" fill="white"/>
<path d="M0.00998668 6.23946C2.48169 4.981 4.9534 3.72494 7.4251 2.47127C7.4276 2.87793 7.4276 3.28218 7.4276 3.68642C5.41778 4.68261 3.40463 5.67318 1.38815 6.65814C3.373 7.85886 5.45272 8.9032 7.48752 10.0221V11.3287C4.99585 9.90419 2.46172 8.54706 0 7.07202C0.00249667 6.8651 0.00749003 6.44882 0.00998668 6.23946Z" fill="white"/>
<path d="M52.565 2.46887C55.0415 3.72251 57.5175 4.97778 59.9925 6.23466C59.995 6.44642 59.9975 6.8699 60 7.08165C57.5458 8.54946 55.0192 9.90179 52.535 11.3239V10.0173C54.5622 8.89838 56.6345 7.85406 58.6118 6.65817C56.5895 5.6764 54.5797 4.67541 52.5625 3.68884C52.5625 3.28218 52.5625 2.87553 52.565 2.46887Z" fill="white"/>
<path d="M18.6751 5.02672C19.494 4.10032 20.9021 4.08587 22.0606 4.19176C22.9772 4.29945 23.8277 4.70716 24.4699 5.34676C24.2027 5.66438 23.9356 5.97959 23.6784 6.30443C22.9943 5.11094 21.2092 4.7452 19.9983 5.36601C19.8953 5.42085 19.8063 5.49736 19.7381 5.58983C19.6698 5.68233 19.624 5.78843 19.6041 5.9003C19.5842 6.01214 19.5907 6.12688 19.6231 6.23601C19.6554 6.34511 19.7129 6.44582 19.7911 6.53063C21.0045 7.73135 23.0792 7.49313 24.2352 8.78049C25.054 9.84645 24.395 11.4634 23.1716 11.9375C22.2895 12.2722 21.3294 12.3692 20.3944 12.2183C19.4594 12.0674 18.5846 11.6742 17.8637 11.0809C18.1433 10.6506 18.3878 10.2001 18.5952 9.73336C19.3017 11.218 21.3765 11.6463 22.7971 10.9148C22.9433 10.8358 23.0674 10.7238 23.1589 10.5885C23.2504 10.4531 23.3065 10.2984 23.3225 10.1376C23.3384 9.97682 23.3137 9.8147 23.2505 9.66508C23.1872 9.51549 23.0874 9.38287 22.9594 9.27859C21.8184 8.48452 20.2879 8.46767 19.1694 7.62306C18.333 7.06242 17.9985 5.82318 18.6751 5.02672Z" fill="white"/>
<path d="M27.014 5.212C28.3022 4.06182 30.3245 3.84525 31.8875 4.57434C32.961 5.08689 33.348 6.29963 33.3955 7.37764C33.4555 8.95132 33.4055 10.5298 33.423 12.1059H32.0272C32.0297 11.7402 32.0373 11.372 32.0448 11.0063C31.116 12.4452 28.9763 12.6136 27.5158 11.899C26.2625 11.2902 26.1428 9.48311 27.1463 8.60241C28.4995 7.3223 30.5642 7.39206 32.3195 7.56292C32.202 6.829 32.0773 5.95072 31.3533 5.52964C30.1648 4.86791 28.6193 5.16148 27.6258 6.02051C27.421 5.75102 27.2162 5.4815 27.014 5.212ZM28.417 8.88155C27.5633 9.34113 27.4708 10.8041 28.4395 11.1843C29.5505 11.5621 30.9837 11.3191 31.7027 10.359C32.1222 9.8272 32.2245 9.14622 32.322 8.50377C31.0285 8.4075 29.5905 8.2078 28.417 8.88155Z" fill="white"/>
</svg>
