<svg width="66" height="66" viewBox="0 0 66 66" fill="none" xmlns="http://www.w3.org/2000/svg">
<g filter="url(#filter0_d_922_241)">
<mask id="mask0_922_241" style="mask-type:alpha" maskUnits="userSpaceOnUse" x="3" y="3" width="60" height="60">
<path d="M51 3H15C8.37258 3 3 8.37258 3 15V51C3 57.6274 8.37258 63 15 63H51C57.6274 63 63 57.6274 63 51V15C63 8.37258 57.6274 3 51 3Z" fill="white"/>
</mask>
<g mask="url(#mask0_922_241)">
<path d="M57.1406 3H8.85938C5.62333 3 3 5.62333 3 8.85938V57.1406C3 60.3767 5.62333 63 8.85938 63H57.1406C60.3767 63 63 60.3767 63 57.1406V8.85938C63 5.62333 60.3767 3 57.1406 3Z" fill="white"/>
<path d="M50.4415 15.3513C45.997 8.96485 37.1489 7.09365 30.788 11.1208L19.575 18.2801C16.5169 20.192 14.3966 23.3242 13.7849 26.8632C13.2549 29.8326 13.7034 32.8835 15.1305 35.5275C14.1519 36.992 13.4996 38.6191 13.2141 40.3275C12.5618 43.9479 13.418 47.6903 15.5383 50.6598C20.0235 57.0462 28.8308 58.9174 35.1917 54.8903L46.4048 47.7717C49.4629 45.8598 51.5831 42.7275 52.1948 39.1886C52.7249 36.2191 52.2763 33.1683 50.8492 30.5242C51.8278 29.0598 52.4802 27.4326 52.7656 25.7242C53.4588 22.0632 52.6025 18.3208 50.4415 15.3513Z" fill="#FF3E00"/>
<path d="M29.6871 51.2698C26.0581 52.2055 22.2661 50.7817 20.1458 47.7309C18.841 45.941 18.3517 43.7038 18.7186 41.5072C18.8002 41.141 18.8818 40.8156 18.9633 40.4495L19.1672 39.7987L19.738 40.2055C21.0836 41.1817 22.5515 41.9139 24.1417 42.4021L24.5494 42.5241L24.5086 42.9309C24.4679 43.5004 24.631 44.1105 24.9572 44.5987C25.6096 45.5342 26.7513 45.9817 27.8522 45.697C28.0969 45.6156 28.3415 45.5342 28.5454 45.4122L39.7177 38.2936C40.2885 37.9275 40.6555 37.3987 40.7778 36.7478C40.9001 36.097 40.737 35.4055 40.37 34.8766C39.7177 33.941 38.5759 33.5342 37.475 33.819C37.2304 33.9004 36.9857 33.9817 36.7819 34.1038L32.5005 36.8292C31.8073 37.2766 31.0327 37.6021 30.2171 37.8055C26.5882 38.741 22.7962 37.3173 20.6758 34.2664C19.4119 32.4766 18.8818 30.2393 19.2895 28.0427C19.6565 25.9275 20.9613 24.0156 22.7962 22.8766L34.0092 15.7579C34.7023 15.3105 35.4771 14.9851 36.2926 14.741C39.9215 13.8055 43.7136 15.2292 45.8338 18.28C47.1386 20.0698 47.6279 22.3071 47.2609 24.5038C47.1794 24.8698 47.0979 25.1953 46.9756 25.5613L46.7716 26.2122L46.2008 25.8055C44.8552 24.8292 43.3873 24.097 41.7971 23.6088L41.3894 23.4868L41.4302 23.08C41.4709 22.5105 41.3079 21.9004 40.9816 21.4122C40.3293 20.4766 39.1876 20.0698 38.0866 20.3546C37.842 20.4359 37.5973 20.5173 37.3935 20.6393L26.2212 27.7579C25.6504 28.1241 25.2834 28.6529 25.1611 29.3038C25.0387 29.9546 25.2019 30.6461 25.5688 31.1749C26.2212 32.1105 27.3629 32.5173 28.4638 32.2325C28.7085 32.1512 28.9531 32.0698 29.157 31.9478L33.4384 29.2224C34.1315 28.7749 34.9062 28.4495 35.7217 28.2055C39.3507 27.2698 43.1427 28.6936 45.263 31.7444C46.5678 33.5342 47.0571 35.7715 46.6901 37.9681C46.3231 40.0834 45.0184 41.9953 43.1835 43.1342L31.9705 50.2529C31.2772 50.7004 30.5026 51.0258 29.6871 51.2698Z" fill="white"/>
</g>
</g>
<defs>
<filter id="filter0_d_922_241" x="0" y="0" width="66" height="66" filterUnits="userSpaceOnUse" color-interpolation-filters="sRGB">
<feFlood flood-opacity="0" result="BackgroundImageFix"/>
<feColorMatrix in="SourceAlpha" type="matrix" values="0 0 0 0 0 0 0 0 0 0 0 0 0 0 0 0 0 0 127 0" result="hardAlpha"/>
<feOffset/>
<feGaussianBlur stdDeviation="1.5"/>
<feColorMatrix type="matrix" values="0 0 0 0 0.192157 0 0 0 0 0.196078 0 0 0 0 0.192157 0 0 0 0.4 0"/>
<feBlend mode="normal" in2="BackgroundImageFix" result="effect1_dropShadow_922_241"/>
<feBlend mode="normal" in="SourceGraphic" in2="effect1_dropShadow_922_241" result="shape"/>
</filter>
</defs>
</svg>
