<svg width="61" height="61" viewBox="0 0 61 61" fill="none" xmlns="http://www.w3.org/2000/svg">
<path d="M38.7802 0.142822H36.4725H20.9121C9.44157 0.142822 0.14286 9.44153 0.14286 20.9121V39.3736C0.14286 50.8441 9.44157 60.1428 20.9121 60.1428H23.8132H26.1209V32.4505H38.7802V0.142822Z" fill="#FF7B9C"/>
<path d="M36.4725 0.142822H34.1648V27.8351H21.5054V60.1428H23.8132H56.9121C58.6964 60.1428 60.1429 58.6964 60.1429 56.9121V20.9121C60.1429 9.44153 50.8441 0.142822 39.3736 0.142822H36.4725Z" fill="#FEFEFC"/>
<path d="M36.6518 46.074V40.3948H23.8132V30.1091H36.4726V24.5707C36.4726 21.8818 40.4316 20.3946 42.6422 22.2958L55.225 33.1179C56.5954 34.2965 56.5954 36.2073 55.225 37.386L42.6422 48.2081C40.4315 50.1093 36.6518 48.7629 36.6518 46.074Z" fill="#FF7B9C"/>
<path d="M23.8131 14.2849V19.8235H36.4725L36.4726 30.1091H23.8132L23.8131 35.6476C23.8131 38.3364 20.7037 39.8237 18.8166 37.9224L8.07523 27.1004C6.9053 25.9219 6.9053 24.0109 8.07523 22.8322L18.8166 12.0102C20.7038 10.1089 23.8131 11.5961 23.8131 14.2849Z" fill="#FEFEFC"/>
</svg>
