<svg width="66" height="66" viewBox="0 0 66 66" fill="none" xmlns="http://www.w3.org/2000/svg">
<g filter="url(#filter0_d_619_2)">
<mask id="mask0_619_2" style="mask-type:alpha" maskUnits="userSpaceOnUse" x="3" y="3" width="60" height="60">
<path d="M51 3H15C8.37258 3 3 8.37258 3 15V51C3 57.6274 8.37258 63 15 63H51C57.6274 63 63 57.6274 63 51V15C63 8.37258 57.6274 3 51 3Z" fill="white"/>
</mask>
<g mask="url(#mask0_619_2)">
<path d="M57.1406 3H8.85938C5.62333 3 3 5.62333 3 8.85938V57.1406C3 60.3767 5.62333 63 8.85938 63H57.1406C60.3767 63 63 60.3767 63 57.1406V8.85938C63 5.62333 60.3767 3 57.1406 3Z" fill="#3178C6"/>
<path fill-rule="evenodd" clip-rule="evenodd" d="M39.8801 50.4782V56.2956C40.8317 56.7843 41.9949 57.145 43.2872 57.3893C44.5796 57.6336 45.9895 57.75 47.3993 57.75C48.8092 57.75 50.1015 57.622 51.3939 57.3544C52.6863 57.0868 53.7437 56.6447 54.6836 56.0746C55.6352 55.4579 56.4459 54.6784 56.9158 53.6312C57.3858 52.5841 57.75 51.4206 57.75 49.9081C57.75 48.8493 57.5855 47.9301 57.2683 47.1157C56.9511 46.3012 56.4929 45.6031 55.8584 45.0214C55.2593 44.4047 54.5661 43.8579 53.7437 43.3925C52.9212 42.9271 51.9813 42.4384 50.924 41.9963C50.1485 41.6822 49.5141 41.3797 48.8092 41.0772C48.1982 40.7746 47.6695 40.4721 47.2818 40.1696C46.8471 39.8555 46.5182 39.5297 46.2832 39.1923C46.0482 38.8433 45.9307 38.4593 45.9307 38.0288C45.9307 37.6332 46.0353 37.2725 46.2479 36.9468C46.4606 36.621 46.7531 36.3534 47.1291 36.1207C47.5051 35.888 47.975 35.7135 48.5389 35.5855C49.0911 35.4575 49.7021 35.3993 50.4188 35.3993C50.9122 35.3993 51.4292 35.4354 51.9461 35.5087C52.4865 35.582 53.0387 35.6948 53.5909 35.8461C54.1431 35.9973 54.6836 36.1835 55.2358 36.4162C55.7527 36.6489 56.2344 36.9165 56.6456 37.219V31.7506C55.7527 31.4132 54.7658 31.1572 53.7084 30.9943C52.651 30.8314 51.4761 30.75 50.0663 30.75C48.6564 30.75 47.3641 30.9013 46.0717 31.1921C44.7793 31.483 43.7219 31.9484 42.782 32.5883C41.8304 33.2166 41.1372 33.9845 40.5498 35.0316C39.9976 36.009 39.7274 37.1259 39.7274 38.5221C39.7274 40.2674 40.2326 41.7799 41.2547 42.9434C42.2651 44.2232 43.8394 45.154 45.8367 46.0848C46.6474 46.4106 47.3641 46.7364 48.069 47.0505C48.7739 47.3647 49.3614 47.6904 49.8313 48.0279C50.3365 48.3653 50.736 48.7376 51.0062 49.1332C51.2999 49.5288 51.4526 49.9942 51.4526 50.5294C51.4526 50.9017 51.361 51.2507 51.1824 51.5765C51.0038 51.9023 50.7242 52.1815 50.3483 52.4142C49.9723 52.6469 49.5141 52.8331 48.9384 52.9727C48.3862 53.1007 47.7635 53.1705 46.9411 53.1705C45.6487 53.1705 44.3564 52.9494 43.1815 52.5073C41.8891 52.0652 40.7143 51.402 39.6569 50.5294L39.8801 50.4782ZM30.0111 36.1672H37.5303V31.3969H16.5V36.1672H24.0192V57.4591H30.0111V36.1672Z" fill="white"/>
</g>
</g>
<defs>
<filter id="filter0_d_619_2" x="0" y="0" width="66" height="66" filterUnits="userSpaceOnUse" color-interpolation-filters="sRGB">
<feFlood flood-opacity="0" result="BackgroundImageFix"/>
<feColorMatrix in="SourceAlpha" type="matrix" values="0 0 0 0 0 0 0 0 0 0 0 0 0 0 0 0 0 0 127 0" result="hardAlpha"/>
<feOffset/>
<feGaussianBlur stdDeviation="1.5"/>
<feColorMatrix type="matrix" values="0 0 0 0 0.192157 0 0 0 0 0.196078 0 0 0 0 0.192157 0 0 0 0.4 0"/>
<feBlend mode="normal" in2="BackgroundImageFix" result="effect1_dropShadow_619_2"/>
<feBlend mode="normal" in="SourceGraphic" in2="effect1_dropShadow_619_2" result="shape"/>
</filter>
</defs>
</svg>
