<svg width="60" height="60" viewBox="0 0 60 60" fill="none" xmlns="http://www.w3.org/2000/svg">
<path d="M48 0H12C5.37258 0 0 5.37258 0 12V48C0 54.6274 5.37258 60 12 60H48C54.6274 60 60 54.6274 60 48V12C60 5.37258 54.6274 0 48 0Z" fill="#0559C9"/>
<path d="M35.6056 19.7547C35.6056 18.2293 36.1109 16.8114 37.1216 15.5011C38.1323 14.1908 40.7584 13.5368 45 13.5392V29.4187L44.275 31.7388C43.9345 32.845 43.4702 33.9099 42.8907 34.9134C42.3673 35.8157 41.7119 36.6357 40.9459 37.3468C40.1975 38.0354 39.3472 38.6062 38.4247 39.0391C37.443 39.4944 36.4073 39.8247 35.3422 40.0222C35.5141 39.0974 35.6025 38.1593 35.6063 37.2189L35.6056 19.7547ZM20.636 15.3369H22.5156V17.1389H20.636V15.3369ZM22.5156 18.0755H24.3966V19.8812H22.5185L22.5156 18.0755ZM20.636 20.3636H22.5163V22.1693H20.636V20.3636ZM18.7578 23.0717H20.636V24.9078H18.76L18.7578 23.0717ZM15.0022 13.5H16.8804V15.3369H15.0022V13.5ZM24.3966 37.2189C24.3966 38.787 24.6879 40.1513 25.2702 41.3119C25.8527 42.4726 26.4958 43.4393 27.1996 44.2119C27.902 44.9869 28.5447 45.5619 29.1275 45.9368L30.0011 46.5C27.6505 46.5 25.5466 46.1725 23.6891 45.5176C21.8317 44.8626 20.2602 43.9495 18.9744 42.7782C17.7017 41.6253 16.6952 40.2124 16.0243 38.6365C15.3415 37.0458 15 35.3261 15 33.4776V18.5274H16.8782V28.5177H18.7585V26.7135H20.636V30.7412H22.5156V23.9742H24.3966V37.2189ZM31.3181 40.9893C33.0545 41.0533 34.6481 40.9241 36.0987 40.602C37.4859 40.3039 38.8084 39.7626 40.0043 39.0035C41.1749 38.2461 42.1879 37.2722 42.988 36.1348C43.8231 34.9649 44.4932 33.5633 44.9986 31.9299V33.4805C44.9986 35.2423 44.6964 36.8806 44.092 38.3953C43.4967 39.8962 42.5926 41.2574 41.4376 42.3917C40.2733 43.5417 38.8559 44.471 37.1853 45.1797C35.5146 45.8884 33.6143 46.3072 31.4842 46.436L30.3625 45.8548C30.2753 45.7908 29.5502 45.2267 28.1874 44.1625C26.8245 43.0982 25.8904 41.4924 25.3851 39.345C26.1969 39.8233 27.0668 40.1969 27.9737 40.4567C28.9517 40.7473 30.0665 40.9249 31.3181 40.9893ZM18.76 17.173H20.6067V18.9787H18.76V17.173Z" fill="white"/>
</svg>
